<?xml version="1.0" encoding="UTF-8"?><!DOCTYPE svg PUBLIC "-//W3C//DTD SVG 1.1//EN" "http://www.w3.org/Graphics/SVG/1.1/DTD/svg11.dtd"><svg xmlns="http://www.w3.org/2000/svg" xmlns:xlink="http://www.w3.org/1999/xlink" xml:space="preserve" width="6.82666in" height="6.82666in" viewBox="0 0 6.82666 6.82666" shape-rendering="geometricPrecision" text-rendering="geometricPrecision" image-rendering="optimizeQuality" fill-rule="evenodd" clip-rule="evenodd"><defs><style type="text/css"><![CDATA[
    .fil0 {fill:none}
    .fil3 {fill:#64B5F6}
    .fil1 {fill:#424242;fill-rule:nonzero}
    .fil2 {fill:#64B5F6;fill-rule:nonzero}
   ]]></style></defs><g id="Layer_x0020_1"><g id="_461861112"><path id="_461861424" class="fil0" fill="none" d="M0 0h6.827v6.827H0z"/><path id="_461861160" class="fil0" fill="none" d="M.853.853h5.12v5.12H.853z"/></g><path class="fil1" d="M5.615 3.186L5.22 5.475l-.016.088H1.604l-.014-.088-.396-2.289h4.42zm-.824.457a.107.107 0 0 0-.213 0v1.275a.107.107 0 0 0 .213 0V3.643zm-.64 0a.107.107 0 0 0-.213 0v1.275a.107.107 0 0 0 .213 0V3.643zm-.64 0a.107.107 0 0 0-.213 0v1.275a.107.107 0 0 0 .213 0V3.643zm-.64 0a.107.107 0 0 0-.213 0v1.275a.107.107 0 0 0 .213 0V3.643zm-.64 0a.107.107 0 0 0-.213 0v1.275a.107.107 0 0 0 .213 0V3.643z" fill="#424242" fill-rule="nonzero"/><path class="fil2" d="M3.933 1.482a.744.744 0 0 0-1.056 0 .744.744 0 0 0 0 1.056.744.744 0 0 0 1.056 0 .744.744 0 0 0 0-1.056zm-.422.101v.32h.32v.214h-.32v.32h-.213v-.32h-.32v-.214h.32v-.32h.213z" fill="#64B5F6" fill-rule="nonzero"/><path class="fil3" d="M1.016 2.53h1.712a.859.859 0 0 0 .677.333.851.851 0 0 0 .676-.332h1.73c.059 0 .107.048.107.106v.336a.107.107 0 0 1-.107.107H1.016a.107.107 0 0 1-.107-.107v-.336c0-.058.048-.106.107-.106z" fill="#64B5F6"/></g><metadata><rdf:RDF xmlns:rdf="http://www.w3.org/1999/02/22-rdf-syntax-ns#" xmlns:rdfs="http://www.w3.org/2000/01/rdf-schema#" xmlns:dc="http://purl.org/dc/elements/1.1/"><rdf:Description about="https://iconscout.com/legal#licenses" dc:title="add,to,basket" dc:description="add,to,basket" dc:publisher="Iconscout" dc:date="2018-01-24" dc:format="image/svg+xml" dc:language="en"><dc:creator><rdf:Bag><rdf:li>Icon Bunny</rdf:li></rdf:Bag></dc:creator></rdf:Description></rdf:RDF></metadata></svg>