<?xml version="1.0" encoding="UTF-8"?><!DOCTYPE svg PUBLIC "-//W3C//DTD SVG 1.1//EN" "http://www.w3.org/Graphics/SVG/1.1/DTD/svg11.dtd"><svg xmlns="http://www.w3.org/2000/svg" xmlns:xlink="http://www.w3.org/1999/xlink" xml:space="preserve" width="6.82666in" height="6.82666in" viewBox="0 0 6.82666 6.82666" shape-rendering="geometricPrecision" text-rendering="geometricPrecision" image-rendering="optimizeQuality" fill-rule="evenodd" clip-rule="evenodd"><defs><style type="text/css"><![CDATA[
    .fil0 {fill:none}
    .fil1 {fill:#424242}
    .fil2 {fill:#64B5F6}
   ]]></style></defs><g id="Layer_x0020_1"><g id="_464044968"><path id="_464045832" class="fil0" fill="none" d="M0 0h6.827v6.827H0z"/><path id="_464045208" class="fil0" fill="none" d="M.853.853h5.12v5.12H.853z"/></g><path class="fil1" fill="#424242" d="M1.276 5.55h4.697v.423H.853V.853h.423z"/><path class="fil2" d="M3.152 4.653l.846-.846.136.136.461.461L5.62 3.38l.272.272L4.595 4.95l-.597-.597-.846.846-.647-.647-.632.633L1.6 4.91l.905-.905.137.136.51.51zm1.642-1.794l.94-.939v.545l-.94.94-.136-.137-.51-.51-.633.632-.273-.272.905-.906.137.137.51.51z" fill="#64B5F6"/></g><metadata><rdf:RDF xmlns:rdf="http://www.w3.org/1999/02/22-rdf-syntax-ns#" xmlns:rdfs="http://www.w3.org/2000/01/rdf-schema#" xmlns:dc="http://purl.org/dc/elements/1.1/"><rdf:Description about="https://iconscout.com/legal#licenses" dc:title="line,graph" dc:description="line,graph" dc:publisher="Iconscout" dc:date="2018-01-24" dc:format="image/svg+xml" dc:language="en"><dc:creator><rdf:Bag><rdf:li>Icon Bunny</rdf:li></rdf:Bag></dc:creator></rdf:Description></rdf:RDF></metadata></svg>