<?xml version="1.0" encoding="UTF-8"?><!DOCTYPE svg PUBLIC "-//W3C//DTD SVG 1.1//EN" "http://www.w3.org/Graphics/SVG/1.1/DTD/svg11.dtd"><svg xmlns="http://www.w3.org/2000/svg" xmlns:xlink="http://www.w3.org/1999/xlink" xml:space="preserve" width="6.82666in" height="6.82666in" viewBox="0 0 6.82666 6.82666" shape-rendering="geometricPrecision" text-rendering="geometricPrecision" image-rendering="optimizeQuality" fill-rule="evenodd" clip-rule="evenodd"><defs><style type="text/css"><![CDATA[
    .fil0 {fill:none}
    .fil2 {fill:#424242}
    .fil1 {fill:#64B5F6;fill-rule:nonzero}
   ]]></style></defs><g id="Layer_x0020_1"><g id="_461874048"><path id="_461874792" class="fil0" fill="none" d="M0 0h6.827v6.827H0z"/><path id="_461874096" class="fil0" fill="none" d="M.853.853h5.12v5.12H.853z"/></g><path class="fil1" fill="#64B5F6" fill-rule="nonzero" d="M4.155 4.693l.208.594.061.174H2.402l.062-.174.208-.594z"/><path class="fil2" d="M1.061 1.366h4.705a.207.207 0 0 1 .208.208V4.39a.207.207 0 0 1-.208.207H1.06a.207.207 0 0 1-.208-.208V1.574a.207.207 0 0 1 .208-.207zm.532 2.165l.752-.751.075-.076.075.076.51.509.634-.635.075-.075.076.075.509.51.493-.494-.305-.305h.747v.747l-.291-.29-.569.568-.075.075-.075-.075-.51-.51-.634.635-.075.075-.076-.075-.509-.51-.676.677-.151-.15z" fill="#424242"/></g><metadata><rdf:RDF xmlns:rdf="http://www.w3.org/1999/02/22-rdf-syntax-ns#" xmlns:rdfs="http://www.w3.org/2000/01/rdf-schema#" xmlns:dc="http://purl.org/dc/elements/1.1/"><rdf:Description about="https://iconscout.com/legal#licenses" dc:title="analysis" dc:description="analysis" dc:publisher="Iconscout" dc:date="2018-01-24" dc:format="image/svg+xml" dc:language="en"><dc:creator><rdf:Bag><rdf:li>Icon Bunny</rdf:li></rdf:Bag></dc:creator></rdf:Description></rdf:RDF></metadata></svg>