<?xml version="1.0" encoding="UTF-8"?><!DOCTYPE svg PUBLIC "-//W3C//DTD SVG 1.1//EN" "http://www.w3.org/Graphics/SVG/1.1/DTD/svg11.dtd"><svg xmlns="http://www.w3.org/2000/svg" xmlns:xlink="http://www.w3.org/1999/xlink" xml:space="preserve" width="6.82666in" height="6.82666in" viewBox="0 0 6.82666 6.82666" shape-rendering="geometricPrecision" text-rendering="geometricPrecision" image-rendering="optimizeQuality" fill-rule="evenodd" clip-rule="evenodd"><defs><style type="text/css"><![CDATA[
    .fil0 {fill:none}
    .fil2 {fill:#424242}
    .fil1 {fill:#64B5F6;fill-rule:nonzero}
   ]]></style></defs><g id="Layer_x0020_1"><g id="_464024280"><path id="_464024352" class="fil0" fill="none" d="M0 0h6.827v6.827H0z"/><path id="_464024544" class="fil0" fill="none" d="M.853.853h5.12v5.12H.853z"/></g><path class="fil1" d="M.853 4.1V5.29c0 .032.05.058.112.058h.58c.061 0 .111-.05.111-.112v-.951l-.739-.161A.222.222 0 0 1 .853 4.1z" fill="#64B5F6" fill-rule="nonzero"/><path class="fil2" d="M.946 2.181l3.204-.698c.17-.037.274.151.274.297v2.638c0 .147-.105.334-.274.298l-3.209-.7a.112.112 0 0 1-.088-.111V2.29c0-.055.04-.1.093-.11zm2.824-.426v2.688h-.223V1.818l.223-.063z" fill="#424242"/><path class="fil1" d="M5.023 1.983a.111.111 0 0 0 .037.22l.743-.126a.111.111 0 0 0-.037-.22l-.743.126z" fill="#64B5F6" fill-rule="nonzero"/><path class="fil1" d="M5.766 4.215a.111.111 0 1 0 .037-.22L5.06 3.87a.111.111 0 1 0-.037.22l.743.125z" fill="#64B5F6" fill-rule="nonzero"/><path class="fil1" d="M5.863 3.084a.111.111 0 0 0-.001-.223l-.855.004a.111.111 0 0 0 0 .222l.856-.003z" fill="#64B5F6" fill-rule="nonzero"/></g><metadata><rdf:RDF xmlns:rdf="http://www.w3.org/1999/02/22-rdf-syntax-ns#" xmlns:rdfs="http://www.w3.org/2000/01/rdf-schema#" xmlns:dc="http://purl.org/dc/elements/1.1/"><rdf:Description about="https://iconscout.com/legal#licenses" dc:title="announcement" dc:description="announcement" dc:publisher="Iconscout" dc:date="2018-01-24" dc:format="image/svg+xml" dc:language="en"><dc:creator><rdf:Bag><rdf:li>Icon Bunny</rdf:li></rdf:Bag></dc:creator></rdf:Description></rdf:RDF></metadata></svg>