<?xml version="1.0" encoding="UTF-8"?><!DOCTYPE svg PUBLIC "-//W3C//DTD SVG 1.1//EN" "http://www.w3.org/Graphics/SVG/1.1/DTD/svg11.dtd"><svg xmlns="http://www.w3.org/2000/svg" xmlns:xlink="http://www.w3.org/1999/xlink" xml:space="preserve" width="6.82666in" height="6.82666in" viewBox="0 0 6.82666 6.82666" shape-rendering="geometricPrecision" text-rendering="geometricPrecision" image-rendering="optimizeQuality" fill-rule="evenodd" clip-rule="evenodd"><defs><style type="text/css"><![CDATA[
    .fil0 {fill:none}
    .fil2 {fill:#64B5F6}
    .fil1 {fill:#424242;fill-rule:nonzero}
   ]]></style></defs><g id="Layer_x0020_1"><g id="_461865144"><path id="_461865384" class="fil0" fill="none" d="M0 0h6.827v6.827H0z"/><path id="_461865552" class="fil0" fill="none" d="M.853.853h5.12v5.12H.853z"/></g><path class="fil1" d="M3.948 2.837h-.875a.089.089 0 0 0-.01.044v.386a.387.387 0 0 1 .031-.054.307.307 0 0 1 .251-.138h.374c.097 0 .181.048.24.123v-.317a.089.089 0 0 0-.01-.044zM5.227.853v5.12H3.916a.41.41 0 0 0 .103-.169h.025V4.562h.299V2.88a.461.461 0 0 0-.097-.285.36.36 0 0 0-.282-.143h-.907a.36.36 0 0 0-.282.143.461.461 0 0 0-.096.285v2.771a.461.461 0 0 0 .128.321H1.6V.853h3.627zM3.063 4.926v.726c0 .014.003.032.01.044h.577a.089.089 0 0 0 .01-.044V3.46h-.256v1.467h-.341z" fill="#424242" fill-rule="nonzero"/><path class="fil2" d="M3.964 2.56h-.907a.253.253 0 0 0-.198.102.354.354 0 0 0-.074.219v2.771c0 .085.029.162.074.22.05.062.12.1.197.101h.611c.078 0 .147-.04.197-.102a.349.349 0 0 0 .07-.173h.003V3.458a.322.322 0 0 0-.054-.184.2.2 0 0 0-.164-.092h-.374a.2.2 0 0 0-.163.092.322.322 0 0 0-.055.184V4.82h.17V3.458c0-.035.01-.066.024-.086.008-.012.017-.02.024-.02h.374c.007 0 .016.008.024.02.015.02.024.05.024.086v2.194a.184.184 0 0 1-.036.114c-.018.023-.041.037-.066.037h-.608c-.024 0-.047-.014-.065-.037a.184.184 0 0 1-.036-.114V2.881c0-.045.014-.086.036-.114.018-.022.041-.036.065-.036h.907c.024 0 .047.014.065.036a.184.184 0 0 1 .036.114v1.574h.171V2.881a.354.354 0 0 0-.073-.22.253.253 0 0 0-.199-.101z" fill="#64B5F6"/></g><metadata><rdf:RDF xmlns:rdf="http://www.w3.org/1999/02/22-rdf-syntax-ns#" xmlns:rdfs="http://www.w3.org/2000/01/rdf-schema#" xmlns:dc="http://purl.org/dc/elements/1.1/"><rdf:Description about="https://iconscout.com/legal#licenses" dc:title="attach,document" dc:description="attach,document" dc:publisher="Iconscout" dc:date="2018-01-24" dc:format="image/svg+xml" dc:language="en"><dc:creator><rdf:Bag><rdf:li>Icon Bunny</rdf:li></rdf:Bag></dc:creator></rdf:Description></rdf:RDF></metadata></svg>