<?xml version="1.0" encoding="UTF-8"?><!DOCTYPE svg PUBLIC "-//W3C//DTD SVG 1.1//EN" "http://www.w3.org/Graphics/SVG/1.1/DTD/svg11.dtd"><svg xmlns="http://www.w3.org/2000/svg" xmlns:xlink="http://www.w3.org/1999/xlink" xml:space="preserve" width="6.82666in" height="6.82666in" viewBox="0 0 6.82666 6.82666" shape-rendering="geometricPrecision" text-rendering="geometricPrecision" image-rendering="optimizeQuality" fill-rule="evenodd" clip-rule="evenodd"><defs><style type="text/css"><![CDATA[
    .fil1 {fill:none}
    .fil0 {fill:#424242}
    .fil2 {fill:#64B5F6;fill-rule:nonzero}
   ]]></style></defs><g id="Layer_x0020_1"><path class="fil0" d="M3.413.853c.407 0 .775.165 1.042.432a1.468 1.468 0 0 1 .254 1.742c-.108.198-.26.37-.444.5v.964a.3.3 0 0 1-.3.3H2.861a.3.3 0 0 1-.3-.3v-.964a1.479 1.479 0 0 1-.621-1.201A1.468 1.468 0 0 1 3.413.854zM3.04 4.685V2.822l.093-.035c.094.108.182.183.27.193.085.01.178-.043.288-.19l.096.032v1.863H3.68v-1.72c-.1.097-.195.132-.289.121a.446.446 0 0 1-.244-.131v1.73H3.04z" fill="#424242"/><g id="_461858736"><path id="_461858904" class="fil1" fill="none" d="M0 0h6.827v6.827H0z"/><path id="_461858760" class="fil1" fill="none" d="M.853.853h5.12v5.12H.853z"/></g><path class="fil2" d="M2.944 4.876a.107.107 0 0 0 0 .214h.939a.107.107 0 0 0 0-.214h-.94z" fill="#64B5F6" fill-rule="nonzero"/><path class="fil2" d="M2.944 5.163a.107.107 0 0 0 0 .214h.939a.107.107 0 0 0 0-.214h-.94z" fill="#64B5F6" fill-rule="nonzero"/><path class="fil2" d="M2.944 5.45a.107.107 0 0 0 0 .214h.939a.107.107 0 0 0 0-.214h-.94z" fill="#64B5F6" fill-rule="nonzero"/><path class="fil2" d="M3.413 5.474a.237.237 0 0 1 .169.406.237.237 0 0 1-.407-.168.237.237 0 0 1 .238-.238zm.05.187a.071.071 0 0 0-.121.05.071.071 0 0 0 .122.051.071.071 0 0 0 0-.1z" fill="#64B5F6" fill-rule="nonzero"/></g><metadata><rdf:RDF xmlns:rdf="http://www.w3.org/1999/02/22-rdf-syntax-ns#" xmlns:rdfs="http://www.w3.org/2000/01/rdf-schema#" xmlns:dc="http://purl.org/dc/elements/1.1/"><rdf:Description about="https://iconscout.com/legal#licenses" dc:title="bulb" dc:description="bulb" dc:publisher="Iconscout" dc:date="2018-01-24" dc:format="image/svg+xml" dc:language="en"><dc:creator><rdf:Bag><rdf:li>Icon Bunny</rdf:li></rdf:Bag></dc:creator></rdf:Description></rdf:RDF></metadata></svg>