<?xml version="1.0" encoding="UTF-8"?><!DOCTYPE svg PUBLIC "-//W3C//DTD SVG 1.1//EN" "http://www.w3.org/Graphics/SVG/1.1/DTD/svg11.dtd"><svg xmlns="http://www.w3.org/2000/svg" xmlns:xlink="http://www.w3.org/1999/xlink" xml:space="preserve" width="6.82666in" height="6.82666in" viewBox="0 0 6.82666 6.82666" shape-rendering="geometricPrecision" text-rendering="geometricPrecision" image-rendering="optimizeQuality" fill-rule="evenodd" clip-rule="evenodd"><defs><style type="text/css"><![CDATA[
    .fil0 {fill:none}
    .fil1 {fill:#424242}
    .fil2 {fill:#64B5F6}
   ]]></style></defs><g id="Layer_x0020_1"><g id="_464032704"><path id="_464033712" class="fil0" fill="none" d="M0 0h6.827v6.827H0z"/><path id="_464033040" class="fil0" fill="none" d="M.853.853h5.12v5.12H.853z"/></g><path class="fil1" d="M1.52.88h3.787a.24.24 0 0 1 .24.24v4.587a.24.24 0 0 1-.24.24H1.52a.24.24 0 0 1-.24-.24V1.12a.24.24 0 0 1 .24-.24zm.24 1.787h.32v.32h-.32v-.32zm2.987 2.24h.32v.32h-.32v-.32zm-.747 0h.32v.32H4v-.32zm-.747 0h.32v.32h-.32v-.32zm-.746 0h.32v.32h-.32v-.32zm-.747 0h.32v.32h-.32v-.32zm2.987-.747h.32v.32h-.32v-.32zM4 4.16h.32v.32H4v-.32zm-.747 0h.32v.32h-.32v-.32zm-.746 0h.32v.32h-.32v-.32zm-.747 0h.32v.32h-.32v-.32zm2.987-.747h.32v.32h-.32v-.32zm-.747 0h.32v.32H4v-.32zm-.747 0h.32v.32h-.32v-.32zm-.746 0h.32v.32h-.32v-.32zm-.747 0h.32v.32h-.32v-.32zm2.987-.746h.32v.32h-.32v-.32zm-.747 0h.32v.32H4v-.32zm-.747 0h.32v.32h-.32v-.32zm-.746 0h.32v.32h-.32v-.32zM1.6 1.28h3.627v.96H1.6v-.96z" fill="#424242"/><path class="fil2" fill="#64B5F6" d="M5.12 2.133v-.746H1.707v.746z"/></g><metadata><rdf:RDF xmlns:rdf="http://www.w3.org/1999/02/22-rdf-syntax-ns#" xmlns:rdfs="http://www.w3.org/2000/01/rdf-schema#" xmlns:dc="http://purl.org/dc/elements/1.1/"><rdf:Description about="https://iconscout.com/legal#licenses" dc:title="calculations" dc:description="calculations" dc:publisher="Iconscout" dc:date="2018-01-24" dc:format="image/svg+xml" dc:language="en"><dc:creator><rdf:Bag><rdf:li>Icon Bunny</rdf:li></rdf:Bag></dc:creator></rdf:Description></rdf:RDF></metadata></svg>