<?xml version="1.0" encoding="UTF-8"?><!DOCTYPE svg PUBLIC "-//W3C//DTD SVG 1.1//EN" "http://www.w3.org/Graphics/SVG/1.1/DTD/svg11.dtd"><svg xmlns="http://www.w3.org/2000/svg" xmlns:xlink="http://www.w3.org/1999/xlink" xml:space="preserve" width="6.82666in" height="6.82666in" viewBox="0 0 6.82666 6.82666" shape-rendering="geometricPrecision" text-rendering="geometricPrecision" image-rendering="optimizeQuality" fill-rule="evenodd" clip-rule="evenodd"><defs><style type="text/css"><![CDATA[
    .fil0 {fill:none}
    .fil2 {fill:#424242}
    .fil1 {fill:#424242;fill-rule:nonzero}
    .fil3 {fill:#64B5F6;fill-rule:nonzero}
   ]]></style></defs><g id="Layer_x0020_1"><g id="_461871792"><path id="_461872440" class="fil0" fill="none" d="M0 0h6.827v6.827H0z"/><path id="_461871888" class="fil0" fill="none" d="M.853.853h5.12v5.12H.853z"/></g><path class="fil1" d="M3.44 3.253a.087.087 0 0 0-.173 0V4a.087.087 0 0 0 .131.074h.54a.08.08 0 0 0 0-.158H3.44v-.663z" fill="#424242" fill-rule="nonzero"/><path class="fil2" d="M1.134 1.547h.146v.533h.427v-.533h.213v.533h.427v-.533h.213v.533h.427v-.533H3.2v.533h.427v-.533h.213v.533h.427v-.533h.213v.533h.427v-.533h.213v.533h.427v-.533h.146a.28.28 0 0 1 .28.28v.36H.853v-.36a.28.28 0 0 1 .28-.28zm2.28 1.28a1.116 1.116 0 0 1 1.12 1.12 1.116 1.116 0 0 1-1.12 1.12 1.116 1.116 0 0 1-1.12-1.12 1.116 1.116 0 0 1 1.12-1.12zm2.56-.427v2.92a.28.28 0 0 1-.281.28h-4.56a.28.28 0 0 1-.28-.28V2.4h5.12z" fill="#424242"/><path class="fil3" d="M1.6 1.227v.746h-.213v-.746H1.6zm3.84 0v.746h-.213v-.746h.213zm-.64 0v.746h-.213v-.746H4.8zm-.64 0v.746h-.213v-.746h.213zm-.64 0v.746h-.213v-.746h.213zm-.64 0v.746h-.213v-.746h.213zm-.64 0v.746h-.213v-.746h.213z" fill="#64B5F6" fill-rule="nonzero"/></g><metadata><rdf:RDF xmlns:rdf="http://www.w3.org/1999/02/22-rdf-syntax-ns#" xmlns:rdfs="http://www.w3.org/2000/01/rdf-schema#" xmlns:dc="http://purl.org/dc/elements/1.1/"><rdf:Description about="https://iconscout.com/legal#licenses" dc:title="date,time" dc:description="date,time" dc:publisher="Iconscout" dc:date="2018-01-24" dc:format="image/svg+xml" dc:language="en"><dc:creator><rdf:Bag><rdf:li>Icon Bunny</rdf:li></rdf:Bag></dc:creator></rdf:Description></rdf:RDF></metadata></svg>