<?xml version="1.0" encoding="UTF-8"?><!DOCTYPE svg PUBLIC "-//W3C//DTD SVG 1.1//EN" "http://www.w3.org/Graphics/SVG/1.1/DTD/svg11.dtd"><svg xmlns="http://www.w3.org/2000/svg" xmlns:xlink="http://www.w3.org/1999/xlink" xml:space="preserve" width="6.82666in" height="6.82666in" viewBox="0 0 6.82666 6.82666" shape-rendering="geometricPrecision" text-rendering="geometricPrecision" image-rendering="optimizeQuality" fill-rule="evenodd" clip-rule="evenodd"><defs><style type="text/css"><![CDATA[
    .fil0 {fill:none}
    .fil2 {fill:#424242}
    .fil1 {fill:#64B5F6}
   ]]></style></defs><g id="Layer_x0020_1"><g id="_464037336"><path id="_464037456" class="fil0" fill="none" d="M0 0h6.827v6.827H0z"/><path id="_464037480" class="fil0" fill="none" d="M.853.853h5.12v5.12H.853z"/></g><path class="fil1" d="M4.767 1.243c.047.029.092.06.137.092l.075.053v-.001l.094.08a2.568 2.568 0 0 1 .798 1.237l-.397.1a2.144 2.144 0 0 0-.64-1.002l-.062-.056-.09-.068a2.154 2.154 0 0 0-.145-.096l.23-.34z" fill="#64B5F6"/><path class="fil2" d="M5.469 4.936a2.55 2.55 0 0 1-2.055 1.035 2.55 2.55 0 0 1-1.81-.75 2.55 2.55 0 0 1-.748-1.808c0-.68.268-1.327.749-1.808A2.55 2.55 0 0 1 3.307.858l.106-.005.106.005c.373.015.735.11 1.063.28l-.232.341a2.139 2.139 0 0 0-.84-.212l-.097-.004-.097.004a2.141 2.141 0 0 0-1.422.627c-.404.404-.63.947-.63 1.52 0 .571.226 1.114.63 1.519.404.404.948.629 1.52.629a2.142 2.142 0 0 0 1.691-.824l.364.198z" fill="#424242"/><path class="fil1" d="M5.973 3.429l-.005.107c-.02.438-.152.858-.38 1.224l-.36-.197c.197-.309.312-.665.331-1.037l.005-.097-.004-.098a2.151 2.151 0 0 0-.036-.319l.398-.101c.027.135.043.273.048.413l.003.105z" fill="#64B5F6"/><path class="fil1" d="M4.287 1.95c.059.035.116.074.17.117l.064.049v-.002l.086.083.011.011c.2.2.344.442.425.706l-.359.092a1.331 1.331 0 0 0-.305-.513l-.047-.05V2.44l-.083-.068a1.336 1.336 0 0 0-.17-.116l.208-.307z" fill="#64B5F6"/><path class="fil2" d="M4.708 4.521a1.699 1.699 0 0 1-1.294.596c-.454 0-.885-.179-1.205-.5a1.699 1.699 0 0 1-.5-1.204c0-.453.18-.884.5-1.205a1.699 1.699 0 0 1 1.107-.496l.097-.005.098.005c.203.012.402.06.586.14l-.212.313a1.329 1.329 0 0 0-.385-.083l-.086-.006-.087.006A1.33 1.33 0 0 0 2.08 3.413c0 .355.14.692.391.943s.588.391.944.391a1.33 1.33 0 0 0 .96-.408l.334.182z" fill="#424242"/><path class="fil1" d="M5.12 3.427l-.006.099c-.02.296-.116.58-.277.824l-.326-.178c.134-.194.215-.42.233-.66l.006-.085-.005-.087a1.336 1.336 0 0 0-.012-.127l.36-.091c.011.069.019.139.022.21l.005.095z" fill="#64B5F6"/></g><metadata><rdf:RDF xmlns:rdf="http://www.w3.org/1999/02/22-rdf-syntax-ns#" xmlns:rdfs="http://www.w3.org/2000/01/rdf-schema#" xmlns:dc="http://purl.org/dc/elements/1.1/"><rdf:Description about="https://iconscout.com/legal#licenses" dc:title="doughnut,chart" dc:description="doughnut,chart" dc:publisher="Iconscout" dc:date="2018-01-24" dc:format="image/svg+xml" dc:language="en"><dc:creator><rdf:Bag><rdf:li>Icon Bunny</rdf:li></rdf:Bag></dc:creator></rdf:Description></rdf:RDF></metadata></svg>