<?xml version="1.0" encoding="UTF-8"?><!DOCTYPE svg PUBLIC "-//W3C//DTD SVG 1.1//EN" "http://www.w3.org/Graphics/SVG/1.1/DTD/svg11.dtd"><svg xmlns="http://www.w3.org/2000/svg" xmlns:xlink="http://www.w3.org/1999/xlink" xml:space="preserve" width="6.82666in" height="6.82666in" viewBox="0 0 6.82666 6.82666" shape-rendering="geometricPrecision" text-rendering="geometricPrecision" image-rendering="optimizeQuality" fill-rule="evenodd" clip-rule="evenodd"><defs><style type="text/css"><![CDATA[
    .fil0 {fill:none}
    .fil1 {fill:#424242}
    .fil2 {fill:#424242;fill-rule:nonzero}
    .fil3 {fill:#64B5F6;fill-rule:nonzero}
   ]]></style></defs><g id="Layer_x0020_1"><g id="_461870952"><path id="_461870736" class="fil0" fill="none" d="M0 0h6.827v6.827H0z"/><path id="_461870976" class="fil0" fill="none" d="M.853.853h5.12v5.12H.853z"/></g><path class="fil1" d="M2.923.853a.868.868 0 0 1 .87.87.868.868 0 0 1-.87.871.868.868 0 0 1-.87-.87.868.868 0 0 1 .87-.87zM2.88 1.996V1.77a.296.296 0 0 1-.154-.09.229.229 0 0 1-.049-.148c0-.059.019-.108.056-.148a.225.225 0 0 1 .147-.069v-.053h.078v.053a.231.231 0 0 1 .136.058.225.225 0 0 1 .064.129l-.136.017c-.008-.042-.03-.07-.064-.085v.209c.086.023.144.053.175.09a.213.213 0 0 1 .047.143c0 .064-.02.119-.059.163a.258.258 0 0 1-.163.082v.1H2.88v-.098a.248.248 0 0 1-.15-.069.284.284 0 0 1-.074-.163l.14-.015a.177.177 0 0 0 .032.074c.015.02.033.035.052.045zm0-.563a.101.101 0 0 0-.05.036.095.095 0 0 0-.019.057.09.09 0 0 0 .017.053.12.12 0 0 0 .052.04v-.186zm.078.57a.11.11 0 0 0 .065-.037.105.105 0 0 0 .026-.07.095.095 0 0 0-.022-.062.134.134 0 0 0-.069-.04v.209z" fill="#424242"/><g id="_461870400"><path id="_461870832" class="fil2" d="M4.55 2.216c.34 0 .65.05.876.13.258.091.417.23.417.395s-.159.305-.417.396c-.225.08-.535.13-.875.13-.34 0-.65-.05-.876-.13-.258-.091-.417-.23-.417-.396 0-.164.16-.304.417-.395.226-.08.536-.13.876-.13z" fill="#424242" fill-rule="nonzero"/><path id="_461870784" class="fil2" d="M5.8 3.048a.27.27 0 0 1 .043.145c0 .164-.159.304-.417.395-.225.08-.535.13-.875.13-.34 0-.65-.05-.876-.13-.258-.091-.417-.23-.417-.395 0-.051.015-.1.043-.145.097.087.225.15.338.19.282.1.615.136.912.136.297 0 .63-.036.911-.136.114-.04.242-.103.338-.19z" fill="#424242" fill-rule="nonzero"/><path id="_461870304" class="fil2" d="M5.8 3.5a.271.271 0 0 1 .043.144c0 .164-.159.304-.417.395-.225.08-.535.13-.875.13-.34 0-.65-.05-.876-.13-.258-.091-.417-.23-.417-.395 0-.051.015-.1.043-.145.097.088.225.15.338.19.282.1.615.136.912.136.297 0 .63-.036.911-.136.114-.04.242-.102.338-.19z" fill="#424242" fill-rule="nonzero"/><path id="_461869848" class="fil2" d="M5.8 3.95a.27.27 0 0 1 .043.145c0 .165-.159.304-.417.395-.225.08-.535.13-.875.13-.34 0-.65-.05-.876-.13-.258-.091-.417-.23-.417-.395 0-.051.015-.1.043-.145.097.088.225.15.338.19.282.1.615.136.912.136.297 0 .63-.036.911-.136.114-.04.242-.102.338-.19z" fill="#424242" fill-rule="nonzero"/><path id="_461870352" class="fil2" d="M5.8 4.401a.27.27 0 0 1 .043.145c0 .165-.159.304-.417.395-.225.08-.535.13-.875.13-.34 0-.65-.05-.876-.13-.258-.091-.417-.23-.417-.395 0-.051.015-.1.043-.145.097.088.225.15.338.19.282.1.615.136.912.136.297 0 .63-.036.911-.136.114-.04.242-.102.338-.19z" fill="#424242" fill-rule="nonzero"/><path id="_461869752" class="fil2" d="M5.8 4.852a.27.27 0 0 1 .043.145c0 .165-.159.304-.417.395-.225.08-.535.13-.875.13-.34 0-.65-.05-.876-.13-.258-.091-.417-.23-.417-.395 0-.051.015-.1.043-.145.097.088.225.15.338.19.282.1.615.136.912.136.297 0 .63-.036.911-.136.114-.04.242-.102.338-.19z" fill="#424242" fill-rule="nonzero"/><path id="_461870280" class="fil2" d="M5.8 5.303a.27.27 0 0 1 .043.145c0 .165-.159.304-.417.395-.225.08-.535.13-.875.13-.34 0-.65-.05-.876-.13-.258-.091-.417-.23-.417-.395 0-.051.015-.1.043-.145.097.088.225.15.338.19.282.1.615.136.912.136.297 0 .63-.036.911-.136.114-.04.242-.102.338-.19z" fill="#424242" fill-rule="nonzero"/></g><g id="_461868888"><path id="_461869272" class="fil3" d="M2.047 2.88c.28 0 .535.04.721.107.212.075.344.19.344.326 0 .135-.132.25-.344.325-.186.067-.44.107-.72.107-.28 0-.535-.04-.721-.107-.213-.075-.344-.19-.344-.325 0-.136.131-.25.344-.326.186-.066.44-.107.72-.107z" fill="#64B5F6" fill-rule="nonzero"/><path id="_461869104" class="fil3" d="M3.076 3.565a.223.223 0 0 1 .036.119c0 .136-.132.25-.344.326-.186.066-.44.107-.72.107-.28 0-.535-.041-.721-.107-.213-.076-.344-.19-.344-.326 0-.042.013-.082.036-.119.08.072.185.123.278.156.232.082.506.112.75.112.245 0 .52-.03.75-.112a.843.843 0 0 0 .28-.156z" fill="#64B5F6" fill-rule="nonzero"/><path id="_461869392" class="fil3" d="M3.076 3.936a.223.223 0 0 1 .036.12c0 .135-.132.25-.344.325-.186.066-.44.107-.72.107-.28 0-.535-.04-.721-.107-.213-.075-.344-.19-.344-.326 0-.041.013-.081.036-.119.08.072.185.123.278.156.232.083.506.113.75.113.245 0 .52-.03.75-.113a.843.843 0 0 0 .28-.156z" fill="#64B5F6" fill-rule="nonzero"/><path id="_461869320" class="fil3" d="M3.076 4.308a.223.223 0 0 1 .036.119c0 .135-.132.25-.344.325-.186.066-.44.107-.72.107-.28 0-.535-.04-.721-.107-.213-.075-.344-.19-.344-.325 0-.042.013-.082.036-.12.08.073.185.124.278.157.232.082.506.112.75.112.245 0 .52-.03.75-.112a.843.843 0 0 0 .28-.156z" fill="#64B5F6" fill-rule="nonzero"/><path id="_461869248" class="fil3" d="M3.076 4.68a.223.223 0 0 1 .036.118c0 .136-.132.25-.344.326-.186.066-.44.107-.72.107-.28 0-.535-.041-.721-.107-.212-.076-.344-.19-.344-.326 0-.042.013-.082.036-.119.08.072.185.123.278.156.232.082.506.112.75.112.245 0 .52-.03.75-.112a.843.843 0 0 0 .28-.156z" fill="#64B5F6" fill-rule="nonzero"/><path id="_461868624" class="fil3" d="M3.076 5.05a.223.223 0 0 1 .036.12c0 .135-.132.25-.344.325-.186.066-.44.107-.72.107-.28 0-.535-.04-.721-.107-.213-.075-.344-.19-.344-.326 0-.042.013-.081.036-.119.08.072.185.123.278.156.232.083.506.112.75.112.245 0 .52-.03.75-.112a.843.843 0 0 0 .28-.156z" fill="#64B5F6" fill-rule="nonzero"/><path id="_461868912" class="fil3" d="M3.076 5.422a.223.223 0 0 1 .036.119c0 .135-.132.25-.344.325-.186.066-.44.107-.72.107-.28 0-.535-.04-.721-.107-.213-.075-.344-.19-.344-.325 0-.042.013-.082.036-.12.08.073.185.124.278.157.232.082.506.112.75.112.245 0 .52-.03.75-.112a.843.843 0 0 0 .28-.156z" fill="#64B5F6" fill-rule="nonzero"/></g></g><metadata><rdf:RDF xmlns:rdf="http://www.w3.org/1999/02/22-rdf-syntax-ns#" xmlns:rdfs="http://www.w3.org/2000/01/rdf-schema#" xmlns:dc="http://purl.org/dc/elements/1.1/"><rdf:Description about="https://iconscout.com/legal#licenses" dc:title="dollar,coins" dc:description="dollar,coins" dc:publisher="Iconscout" dc:date="2018-01-24" dc:format="image/svg+xml" dc:language="en"><dc:creator><rdf:Bag><rdf:li>Icon Bunny</rdf:li></rdf:Bag></dc:creator></rdf:Description></rdf:RDF></metadata></svg>