<?xml version="1.0" encoding="UTF-8"?><!DOCTYPE svg PUBLIC "-//W3C//DTD SVG 1.1//EN" "http://www.w3.org/Graphics/SVG/1.1/DTD/svg11.dtd"><svg xmlns="http://www.w3.org/2000/svg" xmlns:xlink="http://www.w3.org/1999/xlink" xml:space="preserve" width="6.82666in" height="6.82666in" viewBox="0 0 6.82666 6.82666" shape-rendering="geometricPrecision" text-rendering="geometricPrecision" image-rendering="optimizeQuality" fill-rule="evenodd" clip-rule="evenodd"><defs><style type="text/css"><![CDATA[
    .fil0 {fill:none}
    .fil1 {fill:#424242;fill-rule:nonzero}
    .fil2 {fill:#64B5F6;fill-rule:nonzero}
   ]]></style></defs><g id="Layer_x0020_1"><g id="_464040384"><path id="_464041104" class="fil0" fill="none" d="M0 0h6.827v6.827H0z"/><path id="_464040528" class="fil0" fill="none" d="M.853.853h5.12v5.12H.853z"/></g><path class="fil1" d="M4.786 2.7a.712.712 0 0 1 .714.715.712.712 0 0 1-.714.714.712.712 0 0 1-.715-.714.712.712 0 0 1 .715-.715zm-.838 1.502h1.675a.315.315 0 0 1 .316.316v1.443H3.632V4.517a.315.315 0 0 1 .316-.316z" fill="#424242" fill-rule="nonzero"/><path class="fil1" d="M2.041.955a.712.712 0 0 1 .714.715.712.712 0 0 1-.714.714.712.712 0 0 1-.714-.714.712.712 0 0 1 .714-.715zm-.838 1.502H2.88a.315.315 0 0 1 .316.316V4.215H.887V2.773a.315.315 0 0 1 .316-.316z" fill="#424242" fill-rule="nonzero"/><path class="fil2" fill="#64B5F6" fill-rule="nonzero" d="M3.085 1.249H5.063V2.457h-.22v-.989H3.085z"/><path class="fil2" fill="#64B5F6" fill-rule="nonzero" d="M3.414 1.904l-.52-.525.52-.526z"/><path class="fil2" fill="#64B5F6" fill-rule="nonzero" d="M3.305 5.578H1.327V4.37h.22v.99h1.758z"/><path class="fil2" fill="#64B5F6" fill-rule="nonzero" d="M2.975 4.922l.521.526-.521.525z"/></g><metadata><rdf:RDF xmlns:rdf="http://www.w3.org/1999/02/22-rdf-syntax-ns#" xmlns:rdfs="http://www.w3.org/2000/01/rdf-schema#" xmlns:dc="http://purl.org/dc/elements/1.1/"><rdf:Description about="https://iconscout.com/legal#licenses" dc:title="connected,users" dc:description="connected,users" dc:publisher="Iconscout" dc:date="2018-01-24" dc:format="image/svg+xml" dc:language="en"><dc:creator><rdf:Bag><rdf:li>Icon Bunny</rdf:li></rdf:Bag></dc:creator></rdf:Description></rdf:RDF></metadata></svg>