<?xml version="1.0" encoding="UTF-8"?><!DOCTYPE svg PUBLIC "-//W3C//DTD SVG 1.1//EN" "http://www.w3.org/Graphics/SVG/1.1/DTD/svg11.dtd"><svg xmlns="http://www.w3.org/2000/svg" xmlns:xlink="http://www.w3.org/1999/xlink" xml:space="preserve" width="6.82666in" height="6.82666in" viewBox="0 0 6.82666 6.82666" shape-rendering="geometricPrecision" text-rendering="geometricPrecision" image-rendering="optimizeQuality" fill-rule="evenodd" clip-rule="evenodd"><defs><style type="text/css"><![CDATA[
    .fil1 {fill:none}
    .fil0 {fill:#424242}
    .fil2 {fill:#64B5F6}
   ]]></style></defs><g id="Layer_x0020_1"><path class="fil0" d="M1.632.853h3.562v5.12H1.632V.853zm2.118.674v.589l-.329.334-.344-.334v-.59a.764.764 0 0 0-.424.682.757.757 0 0 0 .453.695v2.071a.325.325 0 0 0 .653 0v-2.09a.76.76 0 0 0-.009-1.357z" fill="#424242"/><g id="_464038152"><path id="_464038248" class="fil1" fill="none" d="M0 0h6.827v6.827H0z"/><path id="_464038488" class="fil1" fill="none" d="M.853.853h5.12v5.12H.853z"/></g><path class="fil2" d="M3.857 1.728v.432l-.434.44-.453-.439v-.433a.655.655 0 0 0-.019.942.654.654 0 0 0 .198.135l.064.029v2.14a.219.219 0 0 0 .375.155.219.219 0 0 0 .064-.155V2.819l.058-.03a.655.655 0 0 0 .147-1.06z" fill="#64B5F6"/></g><metadata><rdf:RDF xmlns:rdf="http://www.w3.org/1999/02/22-rdf-syntax-ns#" xmlns:rdfs="http://www.w3.org/2000/01/rdf-schema#" xmlns:dc="http://purl.org/dc/elements/1.1/"><rdf:Description about="https://iconscout.com/legal#licenses" dc:title="document,settings" dc:description="document,settings" dc:publisher="Iconscout" dc:date="2018-01-24" dc:format="image/svg+xml" dc:language="en"><dc:creator><rdf:Bag><rdf:li>Icon Bunny</rdf:li></rdf:Bag></dc:creator></rdf:Description></rdf:RDF></metadata></svg>