<?xml version="1.0" encoding="UTF-8"?><!DOCTYPE svg PUBLIC "-//W3C//DTD SVG 1.1//EN" "http://www.w3.org/Graphics/SVG/1.1/DTD/svg11.dtd"><svg xmlns="http://www.w3.org/2000/svg" xmlns:xlink="http://www.w3.org/1999/xlink" xml:space="preserve" width="6.82666in" height="6.82666in" viewBox="0 0 6.82666 6.82666" shape-rendering="geometricPrecision" text-rendering="geometricPrecision" image-rendering="optimizeQuality" fill-rule="evenodd" clip-rule="evenodd"><defs><style type="text/css"><![CDATA[
    .fil0 {fill:none}
    .fil1 {fill:#424242}
    .fil2 {fill:#64B5F6}
   ]]></style></defs><g id="Layer_x0020_1"><g id="_461874480"><path id="_461875368" class="fil0" fill="none" d="M0 0h6.827v6.827H0z"/><path id="_461874552" class="fil0" fill="none" d="M.853.853h5.12v5.12H.853z"/></g><path class="fil1" d="M4.579 4.603zm.773-1.109zm-.458-.305zm.012.033c.008.009.017.015.029.019a.06.06 0 0 0 .034-.003.06.06 0 0 0 .03-.02.153.153 0 0 1 .092-.06.148.148 0 0 1 .108.02.807.807 0 0 1 .148.116.142.142 0 0 1 .042.098.149.149 0 0 1-.037.102.06.06 0 0 0-.015.032.055.055 0 0 0 .03.056c.01.005.022.007.035.006a.164.164 0 0 1 .1.02.14.14 0 0 1 .068.09.828.828 0 0 1 .02.19.15.15 0 0 1-.144.148l-.002.001a.06.06 0 0 0-.05.041.056.056 0 0 0 .022.063.142.142 0 0 1 .037.197.869.869 0 0 1-.124.151.152.152 0 0 1-.1.044.146.146 0 0 1-.101-.035.058.058 0 0 0-.032-.013.06.06 0 0 0-.035.006.058.058 0 0 0-.023.025.059.059 0 0 0-.006.034.152.152 0 0 1-.116.166.867.867 0 0 1-.19.024.146.146 0 0 1-.102-.04.142.142 0 0 1-.045-.097.057.057 0 0 0-.041-.052.058.058 0 0 0-.035.003.061.061 0 0 0-.029.02.153.153 0 0 1-.093.06.148.148 0 0 1-.107-.02.828.828 0 0 1-.149-.117.142.142 0 0 1-.042-.098c0-.035.012-.072.038-.101a.06.06 0 0 0 .014-.033.056.056 0 0 0-.061-.062H4.07a.167.167 0 0 1-.1-.02.138.138 0 0 1-.068-.09.84.84 0 0 1-.014-.09l-.001-.005a.852.852 0 0 1-.004-.095.15.15 0 0 1 .135-.147.082.082 0 0 0 .04-.017.053.053 0 0 0 .019-.026.056.056 0 0 0-.021-.063.143.143 0 0 1-.059-.09.146.146 0 0 1 .022-.107.861.861 0 0 1 .123-.15.152.152 0 0 1 .1-.044.147.147 0 0 1 .102.035c.008.007.02.011.032.013.013 0 .025 0 .034-.006a.06.06 0 0 0 .03-.06.147.147 0 0 1 .025-.105.152.152 0 0 1 .09-.061.868.868 0 0 1 .09-.016l.006-.001a.875.875 0 0 1 .095-.006c.04 0 .076.014.102.04.026.024.043.059.045.097 0 .012.005.023.012.033zm-.203.353a.323.323 0 0 1 .24.066c.064.05.109.126.118.215a.335.335 0 0 1-.291.36.323.323 0 0 1-.24-.065.313.313 0 0 1-.119-.215.335.335 0 0 1 .291-.36zm-2.697.957zm.878-1.012zm-.42-.362zm.009.034c.006.01.015.018.026.022.01.004.022.005.034.002a.058.058 0 0 0 .03-.016h.001a.147.147 0 0 1 .202-.017.827.827 0 0 1 .135.136.147.147 0 0 1-.017.2.058.058 0 0 0-.014.065c.004.01.011.02.02.026.01.006.022.01.035.01.033 0 .069.012.096.033.03.023.052.057.057.098a.85.85 0 0 1 0 .192.149.149 0 0 1-.158.13v.001a.059.059 0 0 0-.054.035.057.057 0 0 0-.003.035.059.059 0 0 0 .017.03.147.147 0 0 1 .016.202.847.847 0 0 1-.137.136.147.147 0 0 1-.2-.017.059.059 0 0 0-.03-.016.059.059 0 0 0-.035 0 .057.057 0 0 0-.026.023.059.059 0 0 0-.01.034.147.147 0 0 1-.13.152.843.843 0 0 1-.191 0 .148.148 0 0 1-.13-.156.059.059 0 0 0-.036-.056.057.057 0 0 0-.034-.002.06.06 0 0 0-.031.016.148.148 0 0 1-.202.016.849.849 0 0 1-.134-.135.147.147 0 0 1 .016-.2.06.06 0 0 0 .015-.065.059.059 0 0 0-.022-.027.052.052 0 0 0-.03-.009h-.002a.166.166 0 0 1-.097-.033.143.143 0 0 1-.058-.098.866.866 0 0 1-.005-.093v-.004a.865.865 0 0 1 .005-.095.148.148 0 0 1 .15-.131.08.08 0 0 0 .041-.012.052.052 0 0 0 .021-.023.058.058 0 0 0-.014-.065.147.147 0 0 1-.016-.202.839.839 0 0 1 .137-.136.147.147 0 0 1 .2.017.058.058 0 0 0 .03.016.06.06 0 0 0 .035 0V3.21a.06.06 0 0 0 .036-.057.147.147 0 0 1 .13-.151.847.847 0 0 1 .092-.005h.004a.86.86 0 0 1 .096.005.147.147 0 0 1 .13.155c0 .013.003.025.009.035zm-.238.328a.324.324 0 0 1 .23.555.324.324 0 0 1-.555-.23.324.324 0 0 1 .325-.325zm3.693-1.525l.005 2.934v.072l-.067.026-2.348.92V2.951l2.41-.956zm-2.62 3.952L.96 5.027l-.066-.026V2.01l2.414.942v2.995z" fill="#424242"/><path class="fil2" fill="#64B5F6" d="M5.85 1.8L3.454.853h-.077l-2.408.952-.009.005 2.454.958z"/></g><metadata><rdf:RDF xmlns:rdf="http://www.w3.org/1999/02/22-rdf-syntax-ns#" xmlns:rdfs="http://www.w3.org/2000/01/rdf-schema#" xmlns:dc="http://purl.org/dc/elements/1.1/"><rdf:Description about="https://iconscout.com/legal#licenses" dc:title="dropbox,settings" dc:description="dropbox,settings" dc:publisher="Iconscout" dc:date="2018-01-24" dc:format="image/svg+xml" dc:language="en"><dc:creator><rdf:Bag><rdf:li>Icon Bunny</rdf:li></rdf:Bag></dc:creator></rdf:Description></rdf:RDF></metadata></svg>