<?xml version="1.0" encoding="UTF-8"?><!DOCTYPE svg PUBLIC "-//W3C//DTD SVG 1.1//EN" "http://www.w3.org/Graphics/SVG/1.1/DTD/svg11.dtd"><svg xmlns="http://www.w3.org/2000/svg" xmlns:xlink="http://www.w3.org/1999/xlink" xml:space="preserve" width="6.82666in" height="6.82666in" viewBox="0 0 6.82666 6.82666" shape-rendering="geometricPrecision" text-rendering="geometricPrecision" image-rendering="optimizeQuality" fill-rule="evenodd" clip-rule="evenodd"><defs><style type="text/css"><![CDATA[
    .fil1 {fill:none}
    .fil0 {fill:#424242}
    .fil2 {fill:#64B5F6}
   ]]></style></defs><g id="Layer_x0020_1"><path class="fil0" d="M4.734 3.705A1.063 1.063 0 0 1 5.801 4.77a1.063 1.063 0 0 1-1.067 1.067 1.063 1.063 0 0 1-1.066-1.067 1.063 1.063 0 0 1 1.066-1.066zM4.68 5.138v-.325a.43.43 0 0 1-.223-.132.331.331 0 0 1-.071-.214c0-.084.026-.156.08-.214a.326.326 0 0 1 .214-.1v-.076h.113v.077c.082.01.147.037.196.084.049.046.08.108.093.186l-.196.026c-.012-.062-.043-.103-.093-.125v.304c.124.033.209.077.253.13a.31.31 0 0 1 .068.207.346.346 0 0 1-.085.237.374.374 0 0 1-.236.118v.145H4.68v-.141a.36.36 0 0 1-.218-.1.411.411 0 0 1-.107-.237l.202-.022a.257.257 0 0 0 .047.107.21.21 0 0 0 .076.065zm0-.815a.147.147 0 0 0-.073.053.138.138 0 0 0-.027.082.13.13 0 0 0 .025.076.174.174 0 0 0 .075.058v-.27zm.113.826a.158.158 0 0 0 .094-.054.152.152 0 0 0 .037-.101.138.138 0 0 0-.03-.09.194.194 0 0 0-.101-.058v.303z" fill="#424242"/><path class="fil0" d="M2.133.853A1.063 1.063 0 0 1 3.2 1.92a1.063 1.063 0 0 1-1.067 1.067A1.063 1.063 0 0 1 1.067 1.92 1.063 1.063 0 0 1 2.133.853zM2.08 2.287v-.325a.43.43 0 0 1-.223-.132.331.331 0 0 1-.071-.214c0-.085.026-.156.08-.214a.326.326 0 0 1 .214-.1v-.077h.113v.077c.082.01.147.038.196.084.049.047.08.109.093.187l-.196.025c-.012-.061-.043-.102-.093-.124v.303c.124.034.209.078.253.131a.31.31 0 0 1 .068.207.346.346 0 0 1-.085.236.374.374 0 0 1-.236.118v.146h-.113v-.142a.36.36 0 0 1-.218-.1.411.411 0 0 1-.107-.237l.202-.021a.257.257 0 0 0 .047.107.21.21 0 0 0 .076.065zm0-.815a.147.147 0 0 0-.073.052.138.138 0 0 0-.027.083.13.13 0 0 0 .025.076.174.174 0 0 0 .075.057v-.268zm.113.826a.158.158 0 0 0 .094-.054.152.152 0 0 0 .037-.102.138.138 0 0 0-.03-.09.194.194 0 0 0-.101-.057v.303z" fill="#424242"/><g id="_464034216"><path id="_464034336" class="fil1" fill="none" d="M0 0h6.827v6.827H0z"/><path id="_464034312" class="fil1" fill="none" d="M.853.853h5.12v5.12H.853z"/></g><path class="fil2" d="M5.512 2.868l.549-.064-.707.896-.824-.786.58-.01a1.988 1.988 0 0 0-.006-.033C4.907 1.848 4.06 1.26 3.03 1.272L3.024.869c1.263-.013 2.29.76 2.488 1.999z" fill="#64B5F6"/><path class="fil2" d="M1.352 3.926l-.549.063.708-.896.823.786-.58.011.006.033c.198 1.022 1.045 1.61 2.075 1.598l.005.403c-1.263.013-2.29-.759-2.488-1.998z" fill="#64B5F6"/></g><metadata><rdf:RDF xmlns:rdf="http://www.w3.org/1999/02/22-rdf-syntax-ns#" xmlns:rdfs="http://www.w3.org/2000/01/rdf-schema#" xmlns:dc="http://purl.org/dc/elements/1.1/"><rdf:Description about="https://iconscout.com/legal#licenses" dc:title="move,currency" dc:description="move,currency" dc:publisher="Iconscout" dc:date="2018-01-24" dc:format="image/svg+xml" dc:language="en"><dc:creator><rdf:Bag><rdf:li>Icon Bunny</rdf:li></rdf:Bag></dc:creator></rdf:Description></rdf:RDF></metadata></svg>