<?xml version="1.0" encoding="UTF-8"?><!DOCTYPE svg PUBLIC "-//W3C//DTD SVG 1.1//EN" "http://www.w3.org/Graphics/SVG/1.1/DTD/svg11.dtd"><svg xmlns="http://www.w3.org/2000/svg" xmlns:xlink="http://www.w3.org/1999/xlink" xml:space="preserve" width="6.82666in" height="6.82666in" viewBox="0 0 6.82666 6.82666" shape-rendering="geometricPrecision" text-rendering="geometricPrecision" image-rendering="optimizeQuality" fill-rule="evenodd" clip-rule="evenodd"><defs><style type="text/css"><![CDATA[
    .fil0 {fill:none}
    .fil2 {fill:#424242}
    .fil1 {fill:#64B5F6}
   ]]></style></defs><g id="Layer_x0020_1"><g id="_461863992"><path id="_461864136" class="fil0" fill="none" d="M0 0h6.827v6.827H0z"/><path id="_461863896" class="fil0" fill="none" d="M.853.853h5.12v5.12H.853z"/></g><g id="_461863320"><path id="_461863440" class="fil1" d="M5.333 5.12H1.356v.653a.2.2 0 0 0 .2.2H5.27a.2.2 0 0 0 .2-.2V5.12h-.137zm-1.92.17a.256.256 0 1 1 0 .513.256.256 0 0 1 0-.513z" fill="#64B5F6"/><path id="_461863416" class="fil2" d="M5.47 4.907V1.054a.2.2 0 0 0-.2-.2H1.556a.2.2 0 0 0-.2.2v3.853H5.47zM3.922 3.094l.27.89-.787-.529-.763.532.26-.912-.742-.562.948-.035.305-.878.326.89.93.019-.747.585z" fill="#424242"/></g><path class="fil1" fill="#64B5F6" d="M4.366 2.61l-.703-.014-.248-.678-.23.664-.723.027.561.425-.198.694.578-.402.599.402-.204-.673z"/></g><metadata><rdf:RDF xmlns:rdf="http://www.w3.org/1999/02/22-rdf-syntax-ns#" xmlns:rdfs="http://www.w3.org/2000/01/rdf-schema#" xmlns:dc="http://purl.org/dc/elements/1.1/"><rdf:Description about="https://iconscout.com/legal#licenses" dc:title="favorite,link" dc:description="favorite,link" dc:publisher="Iconscout" dc:date="2018-01-24" dc:format="image/svg+xml" dc:language="en"><dc:creator><rdf:Bag><rdf:li>Icon Bunny</rdf:li></rdf:Bag></dc:creator></rdf:Description></rdf:RDF></metadata></svg>