<?xml version="1.0" encoding="UTF-8"?><!DOCTYPE svg PUBLIC "-//W3C//DTD SVG 1.1//EN" "http://www.w3.org/Graphics/SVG/1.1/DTD/svg11.dtd"><svg xmlns="http://www.w3.org/2000/svg" xmlns:xlink="http://www.w3.org/1999/xlink" xml:space="preserve" width="6.82666in" height="6.82666in" viewBox="0 0 6.82666 6.82666" shape-rendering="geometricPrecision" text-rendering="geometricPrecision" image-rendering="optimizeQuality" fill-rule="evenodd" clip-rule="evenodd"><defs><style type="text/css"><![CDATA[
    .fil0 {fill:none}
    .fil1 {fill:#424242}
    .fil3 {fill:#64B5F6}
    .fil2 {fill:#64B5F6;fill-rule:nonzero}
   ]]></style></defs><g id="Layer_x0020_1"><g id="_464026320"><path id="_464025864" class="fil0" fill="none" d="M0 0h6.827v6.827H0z"/><path id="_464025792" class="fil0" fill="none" d="M.853.853h5.12v5.12H.853z"/></g><path class="fil1" fill="#424242" d="M1.281 5.566h4.703v.418H.864V.864h.417z"/><path class="fil2" d="M1.973 4.053a.372.372 0 0 1 .264.638.372.372 0 0 1-.637-.264.372.372 0 0 1 .373-.374z" fill="#64B5F6" fill-rule="nonzero"/><path class="fil2" d="M3.36 4.48a.372.372 0 0 1 .264.637.372.372 0 0 1-.637-.264.372.372 0 0 1 .373-.373z" fill="#64B5F6" fill-rule="nonzero"/><path class="fil2" d="M4.181 3.107a.372.372 0 0 1 .264.638.372.372 0 0 1-.637-.264.372.372 0 0 1 .373-.374z" fill="#64B5F6" fill-rule="nonzero"/><path class="fil2" d="M5.28 2.133a.372.372 0 0 1 .264.638.372.372 0 0 1-.637-.264.372.372 0 0 1 .373-.374z" fill="#64B5F6" fill-rule="nonzero"/><circle class="fil3" cx="2.77333" cy="2.23999" r="0.106667" fill="#64B5F6"/><circle class="fil3" cx="4.26667" cy="4.58666" r="0.106667" fill="#64B5F6"/><circle class="fil3" cx="2.50667" cy="3.14667" r="0.16" fill="#64B5F6"/><circle class="fil3" cx="5.17333" cy="4.21333" r="0.16" fill="#64B5F6"/><circle class="fil3" cx="1.65333" cy="2.08" r="0.16" fill="#64B5F6"/><path class="fil2" fill="#64B5F6" fill-rule="nonzero" d="M2.249 4.422l.887.238-.055.206-.887-.238z"/><path class="fil2" fill="#64B5F6" fill-rule="nonzero" d="M3.429 4.532l.528-.875.182.11-.528.875z"/><path class="fil2" fill="#64B5F6" fill-rule="nonzero" d="M4.313 3.218l.685-.54.132.168-.685.54z"/></g><metadata><rdf:RDF xmlns:rdf="http://www.w3.org/1999/02/22-rdf-syntax-ns#" xmlns:rdfs="http://www.w3.org/2000/01/rdf-schema#" xmlns:dc="http://purl.org/dc/elements/1.1/"><rdf:Description about="https://iconscout.com/legal#licenses" dc:title="dotted,graphs" dc:description="dotted,graphs" dc:publisher="Iconscout" dc:date="2018-01-24" dc:format="image/svg+xml" dc:language="en"><dc:creator><rdf:Bag><rdf:li>Icon Bunny</rdf:li></rdf:Bag></dc:creator></rdf:Description></rdf:RDF></metadata></svg>