<?xml version="1.0" encoding="UTF-8"?><!DOCTYPE svg PUBLIC "-//W3C//DTD SVG 1.1//EN" "http://www.w3.org/Graphics/SVG/1.1/DTD/svg11.dtd"><svg xmlns="http://www.w3.org/2000/svg" xmlns:xlink="http://www.w3.org/1999/xlink" xml:space="preserve" width="6.82666in" height="6.82666in" viewBox="0 0 6.82666 6.82666" shape-rendering="geometricPrecision" text-rendering="geometricPrecision" image-rendering="optimizeQuality" fill-rule="evenodd" clip-rule="evenodd"><defs><style type="text/css"><![CDATA[
    .fil0 {fill:none}
    .fil1 {fill:#424242;fill-rule:nonzero}
    .fil2 {fill:#64B5F6;fill-rule:nonzero}
   ]]></style></defs><g id="Layer_x0020_1"><g id="_464030280"><path id="_464030904" class="fil0" fill="none" d="M0 0h6.827v6.827H0z"/><path id="_464030040" class="fil0" fill="none" d="M.853.853h5.12v5.12H.853z"/></g><path class="fil1" fill="#424242" fill-rule="nonzero" d="M5.534 2.398v3.513H4.7V2.398h-.44l.09-.156.339-.585.338-.586.09-.155.09.155.337.586.338.585.09.156h-.18z"/><path class="fil2" fill="#64B5F6" fill-rule="nonzero" d="M3.869 2.918v2.993h-.833V2.918h-.44l.09-.155.338-.586.338-.585.09-.156.09.156.338.585.338.586.09.155h-.18z"/><path class="fil1" fill="#424242" fill-rule="nonzero" d="M2.125 3.7V5.91h-.832V3.699h-.44l.09-.156.338-.585.338-.586.09-.155.09.155.338.586.338.585.09.156h-.18z"/></g><metadata><rdf:RDF xmlns:rdf="http://www.w3.org/1999/02/22-rdf-syntax-ns#" xmlns:rdfs="http://www.w3.org/2000/01/rdf-schema#" xmlns:dc="http://purl.org/dc/elements/1.1/"><rdf:Description about="https://iconscout.com/legal#licenses" dc:title="inflation" dc:description="inflation" dc:publisher="Iconscout" dc:date="2018-01-24" dc:format="image/svg+xml" dc:language="en"><dc:creator><rdf:Bag><rdf:li>Icon Bunny</rdf:li></rdf:Bag></dc:creator></rdf:Description></rdf:RDF></metadata></svg>