<?xml version="1.0" encoding="UTF-8"?><!DOCTYPE svg PUBLIC "-//W3C//DTD SVG 1.1//EN" "http://www.w3.org/Graphics/SVG/1.1/DTD/svg11.dtd"><svg xmlns="http://www.w3.org/2000/svg" xmlns:xlink="http://www.w3.org/1999/xlink" xml:space="preserve" width="6.82666in" height="6.82666in" viewBox="0 0 6.82666 6.82666" shape-rendering="geometricPrecision" text-rendering="geometricPrecision" image-rendering="optimizeQuality" fill-rule="evenodd" clip-rule="evenodd"><defs><style type="text/css"><![CDATA[
    .fil2 {fill:none}
    .fil0 {fill:#424242}
    .fil3 {fill:#64B5F6}
    .fil1 {fill:#424242;fill-rule:nonzero}
   ]]></style></defs><g id="Layer_x0020_1"><path class="fil0" d="M5.081.96v4.907H1.745V.96h3.336zm-2.839.228H4.691V2.4l-.036.032-1.17 1.06-.034.03.034.028 1.17.96.036.029v1.099H2.136V4.534l.035-.03 1.171-.954.034-.027-.034-.03-1.17-1.054-.036-.032V1.188h.106z" fill="#424242"/><path class="fil1" d="M1.518 5.76a.107.107 0 0 0 0 .213h3.791a.107.107 0 0 0 0-.213H1.518z" fill="#424242" fill-rule="nonzero"/><path class="fil1" d="M1.518.853a.107.107 0 0 0 0 .214h3.791a.107.107 0 0 0 0-.214H1.518z" fill="#424242" fill-rule="nonzero"/><g id="_461843904"><path id="_461844000" class="fil2" fill="none" d="M0 0h6.827v6.827H0z"/><path id="_461843976" class="fil2" fill="none" d="M.853.853h5.12v5.12H.853z"/></g><ellipse class="fil0" cx="3.41333" cy="5.27369" rx="0.130369" ry="0.138016" fill="#424242"/><ellipse class="fil0" cx="3.93481" cy="5.27369" rx="0.130369" ry="0.138016" fill="#424242"/><ellipse class="fil0" cx="4.4563" cy="5.27369" rx="0.130369" ry="0.138016" fill="#424242"/><ellipse class="fil0" cx="3.67407" cy="4.85963" rx="0.130369" ry="0.138016" fill="#424242"/><ellipse class="fil0" cx="4.19555" cy="4.85963" rx="0.130369" ry="0.138016" fill="#424242"/><ellipse class="fil0" cx="3.15259" cy="4.85963" rx="0.130369" ry="0.138016" fill="#424242"/><ellipse class="fil0" cx="2.89185" cy="5.27369" rx="0.130369" ry="0.138016" fill="#424242"/><ellipse class="fil0" cx="2.37038" cy="5.27369" rx="0.130369" ry="0.138016" fill="#424242"/><ellipse class="fil0" cx="2.63111" cy="4.85963" rx="0.130369" ry="0.138016" fill="#424242"/><path class="fil3" d="M2.242 5.068a.23.23 0 0 1 .128-.039c.134 0 .237.113.237.245a.241.241 0 0 1-.237.244.23.23 0 0 1-.128-.038v.052h2.342V5.48a.23.23 0 0 1-.128.038.241.241 0 0 1-.237-.244c0-.132.103-.245.237-.245a.23.23 0 0 1 .128.039V4.59l-1.17-.96-.005.003-1.167.951v.484zm.39-.453c.133 0 .236.113.236.245a.241.241 0 0 1-.237.244.241.241 0 0 1-.237-.244c0-.132.103-.245.237-.245zm.52 0c.134 0 .238.113.238.245a.241.241 0 0 1-.237.244.241.241 0 0 1-.237-.244c0-.132.103-.245.237-.245zm-.26.414c.134 0 .237.113.237.245a.241.241 0 0 1-.237.244.241.241 0 0 1-.237-.244c0-.132.103-.245.237-.245zm1.304-.414c.133 0 .237.113.237.245a.241.241 0 0 1-.237.244.241.241 0 0 1-.237-.244c0-.132.103-.245.237-.245zm-.522 0c.134 0 .237.113.237.245a.241.241 0 0 1-.237.244.241.241 0 0 1-.237-.244c0-.132.103-.245.237-.245zm.26.414c.135 0 .238.113.238.245a.241.241 0 0 1-.237.244.241.241 0 0 1-.237-.244c0-.132.103-.245.237-.245zm-.52 0c.133 0 .236.113.236.245a.241.241 0 0 1-.237.244.241.241 0 0 1-.237-.244c0-.132.103-.245.237-.245zm1.17-3.734H2.242V2.36l1.171 1.053 1.171-1.06V1.295z" fill="#64B5F6"/></g><metadata><rdf:RDF xmlns:rdf="http://www.w3.org/1999/02/22-rdf-syntax-ns#" xmlns:rdfs="http://www.w3.org/2000/01/rdf-schema#" xmlns:dc="http://purl.org/dc/elements/1.1/"><rdf:Description about="https://iconscout.com/legal#licenses" dc:title="hour,glass" dc:description="hour,glass" dc:publisher="Iconscout" dc:date="2018-01-24" dc:format="image/svg+xml" dc:language="en"><dc:creator><rdf:Bag><rdf:li>Icon Bunny</rdf:li></rdf:Bag></dc:creator></rdf:Description></rdf:RDF></metadata></svg>