<?xml version="1.0" encoding="UTF-8"?><!DOCTYPE svg PUBLIC "-//W3C//DTD SVG 1.1//EN" "http://www.w3.org/Graphics/SVG/1.1/DTD/svg11.dtd"><svg xmlns="http://www.w3.org/2000/svg" xmlns:xlink="http://www.w3.org/1999/xlink" xml:space="preserve" width="6.82666in" height="6.82666in" viewBox="0 0 6.82666 6.82666" shape-rendering="geometricPrecision" text-rendering="geometricPrecision" image-rendering="optimizeQuality" fill-rule="evenodd" clip-rule="evenodd"><defs><style type="text/css"><![CDATA[
    .fil0 {fill:none}
    .fil1 {fill:#64B5F6}
    .fil2 {fill:#424242;fill-rule:nonzero}
   ]]></style></defs><g id="Layer_x0020_1"><g id="_461860392"><path id="_461859864" class="fil0" fill="none" d="M0 0h6.827v6.827H0z"/><path id="_461860200" class="fil0" fill="none" d="M.853.853h5.12v5.12H.853z"/></g><path class="fil1" d="M4.008.884l.53.516a1.034 1.034 0 0 1 1.076.381h.001l.002.003.053.072-.063.065-1.272 1.308-.064.066-.074-.053-.006-.004a1.04 1.04 0 0 1-.397-.574 1.034 1.034 0 0 1-.01-.488l-.53-.516-.077-.074.074-.077.606-.623.075-.076.076.074zm1.198.71L4.03 2.768l-.076-.075L5.13 1.518l.076.075z" fill="#64B5F6"/><path class="fil2" d="M2.777 5.76a.107.107 0 0 0 0 .213h1.636a.107.107 0 0 0 0-.213H2.777z" fill="#424242" fill-rule="nonzero"/><path class="fil2" d="M3.595 5.113a.663.663 0 0 1 .657.768v.003l-.015.09H2.953l-.015-.09v-.005h-.001a.668.668 0 0 1 .658-.766z" fill="#424242" fill-rule="nonzero"/><path class="fil2" d="M3.364 5.317L1.632 3.585l.15-.15 1.733 1.731-.151.151zM1.63 3.124l1.467-1.467.153.149-1.469 1.469-.15-.15z" fill="#424242" fill-rule="nonzero"/><path class="fil2" d="M1.53 3.014a.34.34 0 0 1 .242.583.34.34 0 0 1-.583-.242.34.34 0 0 1 .341-.34zm.09.251a.127.127 0 0 0-.217.09.127.127 0 0 0 .218.09.127.127 0 0 0 0-.18z" fill="#424242" fill-rule="nonzero"/></g><metadata><rdf:RDF xmlns:rdf="http://www.w3.org/1999/02/22-rdf-syntax-ns#" xmlns:rdfs="http://www.w3.org/2000/01/rdf-schema#" xmlns:dc="http://purl.org/dc/elements/1.1/"><rdf:Description about="https://iconscout.com/legal#licenses" dc:title="lamp" dc:description="lamp" dc:publisher="Iconscout" dc:date="2018-01-24" dc:format="image/svg+xml" dc:language="en"><dc:creator><rdf:Bag><rdf:li>Icon Bunny</rdf:li></rdf:Bag></dc:creator></rdf:Description></rdf:RDF></metadata></svg>