<?xml version="1.0" encoding="UTF-8"?><!DOCTYPE svg PUBLIC "-//W3C//DTD SVG 1.1//EN" "http://www.w3.org/Graphics/SVG/1.1/DTD/svg11.dtd"><svg xmlns="http://www.w3.org/2000/svg" xmlns:xlink="http://www.w3.org/1999/xlink" xml:space="preserve" width="6.82666in" height="6.82666in" viewBox="0 0 6.82666 6.82666" shape-rendering="geometricPrecision" text-rendering="geometricPrecision" image-rendering="optimizeQuality" fill-rule="evenodd" clip-rule="evenodd"><defs><style type="text/css"><![CDATA[
    .fil1 {fill:none}
    .fil2 {fill:#424242}
    .fil0 {fill:#64B5F6;fill-rule:nonzero}
   ]]></style></defs><g id="Layer_x0020_1"><path class="fil0" d="M.903 4.587a.107.107 0 0 0 0 .213h5.014a.107.107 0 0 0 0-.213H.903z" fill="#64B5F6" fill-rule="nonzero"/><g id="_464035272"><path id="_464035656" class="fil1" fill="none" d="M0 0h6.827v6.827H0z"/><path id="_464035128" class="fil1" fill="none" d="M.853.853h5.12v5.12H.853z"/></g><path class="fil2" d="M1.06 1.493h4.7a.206.206 0 0 1 .207.207v2.573a.206.206 0 0 1-.207.207h-4.7a.206.206 0 0 1-.207-.207V1.7a.206.206 0 0 1 .207-.207zm2.351 1.87a.373.373 0 0 1-.264-.639.373.373 0 0 1 .638.264.373.373 0 0 1-.374.374zm-.741-.838zm.979-.28zm-.8.029a.15.15 0 0 1 .206.017c.008.01.022.017.037.02.015.003.03.003.042-.002a.073.073 0 0 0 .044-.07.15.15 0 0 1 .134-.154.91.91 0 0 1 .203 0 .15.15 0 0 1 .134.16.072.072 0 0 0 .043.069.071.071 0 0 0 .042.002.071.071 0 0 0 .037-.02.15.15 0 0 1 .207-.017.885.885 0 0 1 .144.145.15.15 0 0 1-.017.205.072.072 0 0 0-.018.08.07.07 0 0 0 .026.03.075.075 0 0 0 .041.013c.035 0 .072.013.1.034.03.023.053.058.058.1a.91.91 0 0 1 0 .206.152.152 0 0 1-.162.133H4.15a.072.072 0 0 0-.066.043.07.07 0 0 0-.004.043c.004.014.011.027.022.037a.15.15 0 0 1 .016.207.907.907 0 0 1-.147.145.15.15 0 0 1-.204-.017.072.072 0 0 0-.037-.02.072.072 0 0 0-.043.002.07.07 0 0 0-.031.026c-.027.042.006.083-.049.146a.15.15 0 0 1-.097.051.9.9 0 0 1-.204 0 .15.15 0 0 1-.099-.053c-.053-.064-.019-.105-.045-.148a.07.07 0 0 0-.032-.027.07.07 0 0 0-.043-.003.072.072 0 0 0-.037.02.15.15 0 0 1-.207.017.908.908 0 0 1-.144-.145.15.15 0 0 1 .017-.205.072.072 0 0 0 .019-.079.072.072 0 0 0-.027-.032.065.065 0 0 0-.037-.012h-.003a.17.17 0 0 1-.099-.033.146.146 0 0 1-.06-.1.928.928 0 0 1-.005-.1v-.005a.925.925 0 0 1 .006-.102.15.15 0 0 1 .152-.133c.02 0 .036-.005.05-.014a.065.065 0 0 0 .026-.03.071.071 0 0 0-.018-.08.151.151 0 0 1-.016-.205.897.897 0 0 1 .147-.145z" fill="#424242"/></g><metadata><rdf:RDF xmlns:rdf="http://www.w3.org/1999/02/22-rdf-syntax-ns#" xmlns:rdfs="http://www.w3.org/2000/01/rdf-schema#" xmlns:dc="http://purl.org/dc/elements/1.1/"><rdf:Description about="https://iconscout.com/legal#licenses" dc:title="settings" dc:description="settings" dc:publisher="Iconscout" dc:date="2018-01-24" dc:format="image/svg+xml" dc:language="en"><dc:creator><rdf:Bag><rdf:li>Icon Bunny</rdf:li></rdf:Bag></dc:creator></rdf:Description></rdf:RDF></metadata></svg>