<?xml version="1.0" encoding="UTF-8"?><!DOCTYPE svg PUBLIC "-//W3C//DTD SVG 1.1//EN" "http://www.w3.org/Graphics/SVG/1.1/DTD/svg11.dtd"><svg xmlns="http://www.w3.org/2000/svg" xmlns:xlink="http://www.w3.org/1999/xlink" xml:space="preserve" width="6.82666in" height="6.82666in" viewBox="0 0 6.82666 6.82666" shape-rendering="geometricPrecision" text-rendering="geometricPrecision" image-rendering="optimizeQuality" fill-rule="evenodd" clip-rule="evenodd"><defs><style type="text/css"><![CDATA[
    .fil0 {fill:none}
    .fil1 {fill:#424242;fill-rule:nonzero}
    .fil2 {fill:#64B5F6;fill-rule:nonzero}
   ]]></style></defs><g id="Layer_x0020_1"><g id="_464042760"><path id="_464044128" class="fil0" fill="none" d="M0 0h6.827v6.827H0z"/><path id="_464043072" class="fil0" fill="none" d="M.853.853h5.12v5.12H.853z"/></g><path class="fil1" d="M4.36 1.468a.6.6 0 0 1 .602.6.6.6 0 0 1-.601.601.6.6 0 0 1-.601-.6.6.6 0 0 1 .6-.601z" fill="#424242" fill-rule="nonzero"/><path class="fil1" d="M3.656 2.731h1.41c.073 0 .14.034.187.088a.32.32 0 0 1 .078.212v.436H3.39v-.436c0-.083.03-.157.078-.212a.251.251 0 0 1 .188-.088z" fill="#424242" fill-rule="nonzero"/><path class="fil2" d="M2.043 2.194a.691.691 0 0 1 .693.694.691.691 0 0 1-.693.693.691.691 0 0 1-.693-.693.691.691 0 0 1 .693-.694z" fill="#64B5F6" fill-rule="nonzero"/><path class="fil1" d="M2.857 3.546h3.047l-.08.155-.6 1.173-.03.058H3.269V3.96a.412.412 0 0 0-.412-.413z" fill="#424242" fill-rule="nonzero"/><path class="fil2" d="M1.23 3.652h1.626a.306.306 0 0 1 .307.307v1.4H.923v-1.4a.306.306 0 0 1 .307-.307z" fill="#64B5F6" fill-rule="nonzero"/></g><metadata><rdf:RDF xmlns:rdf="http://www.w3.org/1999/02/22-rdf-syntax-ns#" xmlns:rdfs="http://www.w3.org/2000/01/rdf-schema#" xmlns:dc="http://purl.org/dc/elements/1.1/"><rdf:Description about="https://iconscout.com/legal#licenses" dc:title="meeting" dc:description="meeting" dc:publisher="Iconscout" dc:date="2018-01-24" dc:format="image/svg+xml" dc:language="en"><dc:creator><rdf:Bag><rdf:li>Icon Bunny</rdf:li></rdf:Bag></dc:creator></rdf:Description></rdf:RDF></metadata></svg>