<?xml version="1.0" encoding="UTF-8"?><!DOCTYPE svg PUBLIC "-//W3C//DTD SVG 1.1//EN" "http://www.w3.org/Graphics/SVG/1.1/DTD/svg11.dtd"><svg xmlns="http://www.w3.org/2000/svg" xmlns:xlink="http://www.w3.org/1999/xlink" xml:space="preserve" width="6.82666in" height="6.82666in" viewBox="0 0 6.82666 6.82666" shape-rendering="geometricPrecision" text-rendering="geometricPrecision" image-rendering="optimizeQuality" fill-rule="evenodd" clip-rule="evenodd"><defs><style type="text/css"><![CDATA[
    .fil0 {fill:none}
    .fil1 {fill:#424242}
    .fil2 {fill:#64B5F6}
   ]]></style></defs><g id="Layer_x0020_1"><g id="_461856744"><path id="_461856888" class="fil0" fill="none" d="M0 0h6.827v6.827H0z"/><path id="_461856864" class="fil0" fill="none" d="M.853.853h5.12v5.12H.853z"/></g><path class="fil1" d="M1.295 1.745h4.237a.201.201 0 0 1 .202.202v2.298H1.093V1.947c0-.055.023-.106.06-.143a.202.202 0 0 1 .142-.06zm.48 1.773h1.981v.208H1.775v-.208zm0-1.043h1.981v.208H1.775v-.208zm0 .521h1.981v.209H1.775v-.209zm2.365-.453l.832.417.135.068-.119.092-.25.195.342.403-.145.123-.348-.409-.23.18-.12.092-.032-.147-.2-.909-.043-.195.178.09z" fill="#424242"/><path class="fil2" d="M.958 4.352h5.015v.73H.853v-.73h.105zm4.46.237a.128.128 0 1 1 0 .256.128.128 0 0 1 0-.256zm-.496 0a.128.128 0 1 1 0 .256.128.128 0 0 1 0-.256z" fill="#64B5F6"/></g><metadata><rdf:RDF xmlns:rdf="http://www.w3.org/1999/02/22-rdf-syntax-ns#" xmlns:rdfs="http://www.w3.org/2000/01/rdf-schema#" xmlns:dc="http://purl.org/dc/elements/1.1/"><rdf:Description about="https://iconscout.com/legal#licenses" dc:title="click,link" dc:description="click,link" dc:publisher="Iconscout" dc:date="2018-01-24" dc:format="image/svg+xml" dc:language="en"><dc:creator><rdf:Bag><rdf:li>Icon Bunny</rdf:li></rdf:Bag></dc:creator></rdf:Description></rdf:RDF></metadata></svg>