<?xml version="1.0" encoding="UTF-8"?><!DOCTYPE svg PUBLIC "-//W3C//DTD SVG 1.1//EN" "http://www.w3.org/Graphics/SVG/1.1/DTD/svg11.dtd"><svg xmlns="http://www.w3.org/2000/svg" xmlns:xlink="http://www.w3.org/1999/xlink" xml:space="preserve" width="6.82666in" height="6.82666in" viewBox="0 0 6.82666 6.82666" shape-rendering="geometricPrecision" text-rendering="geometricPrecision" image-rendering="optimizeQuality" fill-rule="evenodd" clip-rule="evenodd"><defs><style type="text/css"><![CDATA[
    .fil0 {fill:none}
    .fil2 {fill:#424242}
    .fil1 {fill:#424242;fill-rule:nonzero}
    .fil3 {fill:#64B5F6;fill-rule:nonzero}
   ]]></style></defs><g id="Layer_x0020_1"><g id="_464027856"><path id="_464027400" class="fil0" fill="none" d="M0 0h6.827v6.827H0z"/><path id="_464027640" class="fil0" fill="none" d="M.853.853h5.12v5.12H.853z"/></g><path class="fil1" d="M3.413.907c.693 0 1.32.28 1.773.734.453.453.734 1.08.734 1.772 0 .59-.203 1.131-.544 1.56l-.246-.205c.1-.127.187-.266.258-.414l.385-.154-.283-.1a2.184 2.184 0 0 0-.53-2.233 2.18 2.18 0 0 0-1.547-.64 2.18 2.18 0 0 0-1.546.64 2.18 2.18 0 0 0-.64 1.546c0 .604.244 1.15.64 1.547a2.18 2.18 0 0 0 2.253.523l.12.298c-.26.09-.537.139-.827.139-.692 0-1.319-.28-1.772-.734a2.499 2.499 0 0 1-.734-1.773c0-.692.28-1.319.734-1.772A2.499 2.499 0 0 1 3.413.907zm1.682 4.365c-.242.22-.527.392-.84.503l.141-.408a2.19 2.19 0 0 0 .45-.302l.25.207z" fill="#424242" fill-rule="nonzero"/><path class="fil1" d="M3.413 1.867c.427 0 .814.173 1.094.453a1.542 1.542 0 0 1 .379 1.568l-.303-.106a1.226 1.226 0 1 0-.822.808l.12.298a1.546 1.546 0 0 1-2.014-1.475c0-.427.173-.813.453-1.093s.666-.453 1.093-.453z" fill="#424242" fill-rule="nonzero"/><path class="fil2" d="M3.413 2.966a.447.447 0 0 1 .433.558l-.172-.06-.426-.15.218.543a.447.447 0 1 1-.053-.89z" fill="#424242"/><path class="fil3" fill="#64B5F6" fill-rule="nonzero" d="M4.67 4.526l.841.696-.125.152-.858-.71-.203.582-.086.248-.098-.243-.626-1.558-.08-.2.204.071 1.584.556.247.086-.243.098z"/></g><metadata><rdf:RDF xmlns:rdf="http://www.w3.org/1999/02/22-rdf-syntax-ns#" xmlns:rdfs="http://www.w3.org/2000/01/rdf-schema#" xmlns:dc="http://purl.org/dc/elements/1.1/"><rdf:Description about="https://iconscout.com/legal#licenses" dc:title="mouse,click" dc:description="mouse,click" dc:publisher="Iconscout" dc:date="2018-01-24" dc:format="image/svg+xml" dc:language="en"><dc:creator><rdf:Bag><rdf:li>Icon Bunny</rdf:li></rdf:Bag></dc:creator></rdf:Description></rdf:RDF></metadata></svg>