<?xml version="1.0" encoding="UTF-8"?><!DOCTYPE svg PUBLIC "-//W3C//DTD SVG 1.1//EN" "http://www.w3.org/Graphics/SVG/1.1/DTD/svg11.dtd"><svg xmlns="http://www.w3.org/2000/svg" xmlns:xlink="http://www.w3.org/1999/xlink" xml:space="preserve" width="6.82666in" height="6.82666in" viewBox="0 0 6.82666 6.82666" shape-rendering="geometricPrecision" text-rendering="geometricPrecision" image-rendering="optimizeQuality" fill-rule="evenodd" clip-rule="evenodd"><defs><style type="text/css"><![CDATA[
    .fil0 {fill:none}
    .fil2 {fill:#424242}
    .fil1 {fill:#64B5F6;fill-rule:nonzero}
   ]]></style></defs><g id="Layer_x0020_1"><g id="_461867568"><path id="_461868264" class="fil0" fill="none" d="M0 0h6.827v6.827H0z"/><path id="_461868504" class="fil0" fill="none" d="M.853.853h5.12v5.12H.853z"/></g><g id="_461867520"><path id="_461867544" class="fil1" d="M2.949 4.282l-.885 1.532a.106.106 0 0 0 .184.106l.946-1.638H2.95z" fill="#64B5F6" fill-rule="nonzero"/><path id="_461868120" class="fil1" d="M3.633 4.282l.945 1.638a.106.106 0 1 0 .184-.106l-.884-1.532h-.245z" fill="#64B5F6" fill-rule="nonzero"/></g><path class="fil2" d="M1.349.853h4.13a.19.19 0 0 1 .138.062.203.203 0 0 1 .055.138v2.922c0 .054-.02.103-.054.139a.19.19 0 0 1-.14.061h-4.13a.19.19 0 0 1-.139-.061.203.203 0 0 1-.054-.139V1.053c0-.053.02-.102.054-.138a.19.19 0 0 1 .14-.062zm.364 2.165l1.063-1.062.11-.11.078.135.584 1.012 1.058-1.059-.34-.34h.858v.858l-.349-.349-1.168 1.169-.11.11-.078-.136-.584-1.011-.953.952-.169-.169z" fill="#424242"/></g><metadata><rdf:RDF xmlns:rdf="http://www.w3.org/1999/02/22-rdf-syntax-ns#" xmlns:rdfs="http://www.w3.org/2000/01/rdf-schema#" xmlns:dc="http://purl.org/dc/elements/1.1/"><rdf:Description about="https://iconscout.com/legal#licenses" dc:title="presentation" dc:description="presentation" dc:publisher="Iconscout" dc:date="2018-01-24" dc:format="image/svg+xml" dc:language="en"><dc:creator><rdf:Bag><rdf:li>Icon Bunny</rdf:li></rdf:Bag></dc:creator></rdf:Description></rdf:RDF></metadata></svg>