<?xml version="1.0" encoding="UTF-8"?><!DOCTYPE svg PUBLIC "-//W3C//DTD SVG 1.1//EN" "http://www.w3.org/Graphics/SVG/1.1/DTD/svg11.dtd"><svg xmlns="http://www.w3.org/2000/svg" xmlns:xlink="http://www.w3.org/1999/xlink" xml:space="preserve" width="6.82666in" height="6.82666in" viewBox="0 0 6.82666 6.82666" shape-rendering="geometricPrecision" text-rendering="geometricPrecision" image-rendering="optimizeQuality" fill-rule="evenodd" clip-rule="evenodd"><defs><style type="text/css"><![CDATA[
    .fil1 {fill:none}
    .fil0 {fill:#424242;fill-rule:nonzero}
    .fil2 {fill:#64B5F6;fill-rule:nonzero}
   ]]></style></defs><g id="Layer_x0020_1"><path class="fil0" d="M1.508 2.738l.224-.67.014-.042.039-.02.327-.162.013.023.18-.09-.014-.021.374-.187a.963.963 0 0 1 .065.3c.001.049-.004.161-.056.187-.053.026-.145-.038-.183-.068a.699.699 0 0 1-.049-.043l-.025-.025-.186.092.047.05a.932.932 0 0 0 .088.08c.108.087.26.16.396.092.136-.067.17-.232.166-.37a1.182 1.182 0 0 0-.084-.383l.139-.069.08-.005.67.226.06.053 1.5 3.02a.245.245 0 0 1 .018.171.211.211 0 0 1-.11.138l-1.887.937a.211.211 0 0 1-.176.004.245.245 0 0 1-.125-.118l-1.5-3.02-.005-.08z" fill="#424242" fill-rule="nonzero"/><g id="_464018952"><path id="_464019192" class="fil1" fill="none" d="M0 0h6.827v6.827H0z"/><path id="_464019048" class="fil1" fill="none" d="M.853.853h5.12v5.12H.853z"/></g><path class="fil2" d="M2.087.874c.097-.048.22-.011.342.087.112.09.224.233.312.408.087.176.133.353.137.496.005.156-.041.276-.138.325-.097.048-.22.011-.342-.087a.884.884 0 0 1-.084-.076l.093-.047a.75.75 0 0 0 .052.047c.092.073.178.104.237.074.06-.03.087-.116.084-.233a1.14 1.14 0 0 0-.128-.455 1.14 1.14 0 0 0-.285-.376C2.277.964 2.19.933 2.131.963c-.06.03-.087.116-.084.233.004.13.047.292.128.455.018.037.038.073.058.106l-.088.044a1.52 1.52 0 0 1-.059-.107A1.24 1.24 0 0 1 1.95 1.2c-.005-.156.041-.276.138-.325z" fill="#64B5F6" fill-rule="nonzero"/></g><metadata><rdf:RDF xmlns:rdf="http://www.w3.org/1999/02/22-rdf-syntax-ns#" xmlns:rdfs="http://www.w3.org/2000/01/rdf-schema#" xmlns:dc="http://purl.org/dc/elements/1.1/"><rdf:Description about="https://iconscout.com/legal#licenses" dc:title="price,tag" dc:description="price,tag" dc:publisher="Iconscout" dc:date="2018-01-24" dc:format="image/svg+xml" dc:language="en"><dc:creator><rdf:Bag><rdf:li>Icon Bunny</rdf:li></rdf:Bag></dc:creator></rdf:Description></rdf:RDF></metadata></svg>