<?xml version="1.0" encoding="UTF-8"?><!DOCTYPE svg PUBLIC "-//W3C//DTD SVG 1.1//EN" "http://www.w3.org/Graphics/SVG/1.1/DTD/svg11.dtd"><svg xmlns="http://www.w3.org/2000/svg" xmlns:xlink="http://www.w3.org/1999/xlink" xml:space="preserve" width="6.82666in" height="6.82666in" viewBox="0 0 6.82666 6.82666" shape-rendering="geometricPrecision" text-rendering="geometricPrecision" image-rendering="optimizeQuality" fill-rule="evenodd" clip-rule="evenodd"><defs><style type="text/css"><![CDATA[
    .fil0 {fill:none}
    .fil1 {fill:#424242}
    .fil2 {fill:#64B5F6}
   ]]></style></defs><g id="Layer_x0020_1"><g id="_461848824"><path id="_461849016" class="fil0" fill="none" d="M0 0h6.827v6.827H0z"/><path id="_461848896" class="fil0" fill="none" d="M.853.853h5.12v5.12H.853z"/></g><path class="fil1" fill="#424242" d="M4.773 2.086h1.2v1.2l-.457-.457-2.182 2.24-.117-.3-.45-1.158-1.632 1.516-.282-.303 2.08-1.93.553 1.426 1.737-1.783z"/><path class="fil2" d="M4.323 1.7v1.636l-.414.425V1.699h.414zm-2.486.776v1.296l-.414.385v-1.68h.414zm.829-.777v1.303l-.414.385V1.699h.414zm.829.26v2.147L3.08 3.038v-1.08h.415z" fill="#64B5F6"/></g><metadata><rdf:RDF xmlns:rdf="http://www.w3.org/1999/02/22-rdf-syntax-ns#" xmlns:rdfs="http://www.w3.org/2000/01/rdf-schema#" xmlns:dc="http://purl.org/dc/elements/1.1/"><rdf:Description about="https://iconscout.com/legal#licenses" dc:title="increasing,rate" dc:description="increasing,rate" dc:publisher="Iconscout" dc:date="2018-01-24" dc:format="image/svg+xml" dc:language="en"><dc:creator><rdf:Bag><rdf:li>Icon Bunny</rdf:li></rdf:Bag></dc:creator></rdf:Description></rdf:RDF></metadata></svg>