<?xml version="1.0" encoding="UTF-8"?><!DOCTYPE svg PUBLIC "-//W3C//DTD SVG 1.1//EN" "http://www.w3.org/Graphics/SVG/1.1/DTD/svg11.dtd"><svg xmlns="http://www.w3.org/2000/svg" xmlns:xlink="http://www.w3.org/1999/xlink" xml:space="preserve" width="6.82666in" height="6.82666in" viewBox="0 0 6.82666 6.82666" shape-rendering="geometricPrecision" text-rendering="geometricPrecision" image-rendering="optimizeQuality" fill-rule="evenodd" clip-rule="evenodd"><defs><style type="text/css"><![CDATA[
    .fil0 {fill:none}
    .fil1 {fill:#424242}
    .fil2 {fill:#64B5F6}
   ]]></style></defs><g id="Layer_x0020_1"><g id="_464020272"><path id="_464020632" class="fil0" fill="none" d="M0 0h6.827v6.827H0z"/><path id="_464020992" class="fil0" fill="none" d="M.853.853h5.12v5.12H.853z"/></g><path class="fil1" d="M1.527 1.836l-.469-.4L2.314 1.4l-.136 1.327-.345-.593a2.226 2.226 0 0 0-.226.308 2.233 2.233 0 0 0 .218 2.625l.069.081-.323.278-.07-.08a2.886 2.886 0 0 1-.259-.357 2.657 2.657 0 0 1-.33-.833 2.657 2.657 0 0 1 .615-2.32z" fill="#424242"/><path class="fil1" d="M5.3 4.991l.468.4-1.255.035.135-1.327.346.594a2.226 2.226 0 0 0 .226-.309 2.233 2.233 0 0 0-.218-2.625l-.07-.08.324-.279.07.082a2.886 2.886 0 0 1 .258.355 2.657 2.657 0 0 1 .33.833A2.657 2.657 0 0 1 5.3 4.991z" fill="#424242"/><path class="fil2" fill="#64B5F6" d="M2.805 4.034l1.833-1.833.302.302-2.135 2.134-.15-.15-.866-.866.302-.301z"/></g><metadata><rdf:RDF xmlns:rdf="http://www.w3.org/1999/02/22-rdf-syntax-ns#" xmlns:rdfs="http://www.w3.org/2000/01/rdf-schema#" xmlns:dc="http://purl.org/dc/elements/1.1/"><rdf:Description about="https://iconscout.com/legal#licenses" dc:title="total,quality,management" dc:description="total,quality,management" dc:publisher="Iconscout" dc:date="2018-01-24" dc:format="image/svg+xml" dc:language="en"><dc:creator><rdf:Bag><rdf:li>Icon Bunny</rdf:li></rdf:Bag></dc:creator></rdf:Description></rdf:RDF></metadata></svg>