<?xml version="1.0" encoding="UTF-8"?><!DOCTYPE svg PUBLIC "-//W3C//DTD SVG 1.1//EN" "http://www.w3.org/Graphics/SVG/1.1/DTD/svg11.dtd"><svg xmlns="http://www.w3.org/2000/svg" xmlns:xlink="http://www.w3.org/1999/xlink" xml:space="preserve" width="6.82666in" height="6.82666in" viewBox="0 0 6.82666 6.82666" shape-rendering="geometricPrecision" text-rendering="geometricPrecision" image-rendering="optimizeQuality" fill-rule="evenodd" clip-rule="evenodd"><defs><style type="text/css"><![CDATA[
    .fil2 {fill:none}
    .fil0 {fill:#424242}
    .fil3 {fill:#64B5F6}
    .fil1 {fill:#424242;fill-rule:nonzero}
   ]]></style></defs><g id="Layer_x0020_1"><path class="fil0" d="M1.45.853h4.033v5.12H1.344V.853h.107zM3.477 2.99a1.223 1.223 0 0 1 1.227 1.227 1.223 1.223 0 0 1-1.227 1.227 1.223 1.223 0 0 1-1.227-1.227A1.223 1.223 0 0 1 3.476 2.99zM1.813 1.493h3.2v.214h-3.2v-.214zm0 .747h3.2v.213h-3.2V2.24z" fill="#424242"/><path class="fil1" d="M3.503 3.524a.087.087 0 0 0-.173 0v.746c0 .048.039.087.087.087h.633a.087.087 0 0 0 0-.173h-.547v-.66z" fill="#424242" fill-rule="nonzero"/><g id="_464041320"><path id="_464041992" class="fil2" fill="none" d="M0 0h6.827v6.827H0z"/><path id="_464041224" class="fil2" fill="none" d="M.853.853h5.12v5.12H.853z"/></g><path class="fil3" d="M4.268 3.425a1.116 1.116 0 0 0-1.584 0 1.116 1.116 0 0 0 0 1.584 1.116 1.116 0 0 0 1.584 0 1.116 1.116 0 0 0 0-1.584zm-.658.652h.44a.193.193 0 0 1 0 .387h-.632a.193.193 0 0 1-.195-.194v-.746a.193.193 0 0 1 .387 0v.553z" fill="#64B5F6"/></g><metadata><rdf:RDF xmlns:rdf="http://www.w3.org/1999/02/22-rdf-syntax-ns#" xmlns:rdfs="http://www.w3.org/2000/01/rdf-schema#" xmlns:dc="http://purl.org/dc/elements/1.1/"><rdf:Description about="https://iconscout.com/legal#licenses" dc:title="report,on,paper" dc:description="report,on,paper" dc:publisher="Iconscout" dc:date="2018-01-24" dc:format="image/svg+xml" dc:language="en"><dc:creator><rdf:Bag><rdf:li>Icon Bunny</rdf:li></rdf:Bag></dc:creator></rdf:Description></rdf:RDF></metadata></svg>