<?xml version="1.0" encoding="UTF-8"?><!DOCTYPE svg PUBLIC "-//W3C//DTD SVG 1.1//EN" "http://www.w3.org/Graphics/SVG/1.1/DTD/svg11.dtd"><svg xmlns="http://www.w3.org/2000/svg" xmlns:xlink="http://www.w3.org/1999/xlink" xml:space="preserve" width="6.82666in" height="6.82666in" viewBox="0 0 6.82666 6.82666" shape-rendering="geometricPrecision" text-rendering="geometricPrecision" image-rendering="optimizeQuality" fill-rule="evenodd" clip-rule="evenodd"><defs><style type="text/css"><![CDATA[
    .fil0 {fill:none}
    .fil1 {fill:#424242}
    .fil2 {fill:#64B5F6}
   ]]></style></defs><g id="Layer_x0020_1"><g id="_464023320"><path id="_464023344" class="fil0" fill="none" d="M0 0h6.827v6.827H0z"/><path id="_464023128" class="fil0" fill="none" d="M.853.853h5.12v5.12H.853z"/></g><path class="fil1" d="M3.52 1.697l2.337-.203.116-.01v3.859l-.116-.01L3.52 5.13V1.697zm.703 1.396V4.16H4.01V3.093h.213zm.533-.213v1.28h-.213V2.88h.213zm.534-.32v1.6h-.214v-1.6h.214z" fill="#424242"/><path class="fil2" d="M3.307 5.13V1.697L.969 1.494l-.116-.01v3.859l.116-.01 2.338-.203zM1.265 3.79l.425-.424.06-.06.058.06.368.368.451-.452-.2-.207h.509V3.6l-.193-.197-.508.508-.06.06-.058-.06-.368-.367-.366.366-.118-.118z" fill="#64B5F6"/></g><metadata><rdf:RDF xmlns:rdf="http://www.w3.org/1999/02/22-rdf-syntax-ns#" xmlns:rdfs="http://www.w3.org/2000/01/rdf-schema#" xmlns:dc="http://purl.org/dc/elements/1.1/"><rdf:Description about="https://iconscout.com/legal#licenses" dc:title="study,reports" dc:description="study,reports" dc:publisher="Iconscout" dc:date="2018-01-24" dc:format="image/svg+xml" dc:language="en"><dc:creator><rdf:Bag><rdf:li>Icon Bunny</rdf:li></rdf:Bag></dc:creator></rdf:Description></rdf:RDF></metadata></svg>