<?xml version="1.0" encoding="UTF-8"?><!DOCTYPE svg PUBLIC "-//W3C//DTD SVG 1.1//EN" "http://www.w3.org/Graphics/SVG/1.1/DTD/svg11.dtd"><svg xmlns="http://www.w3.org/2000/svg" xmlns:xlink="http://www.w3.org/1999/xlink" xml:space="preserve" width="6.82666in" height="6.82666in" viewBox="0 0 6.82666 6.82666" shape-rendering="geometricPrecision" text-rendering="geometricPrecision" image-rendering="optimizeQuality" fill-rule="evenodd" clip-rule="evenodd"><defs><style type="text/css"><![CDATA[
    .fil0 {fill:none}
    .fil1 {fill:#424242}
    .fil2 {fill:#64B5F6}
   ]]></style></defs><g id="Layer_x0020_1"><g id="_464021976"><path id="_464022480" class="fil0" fill="none" d="M0 0h6.827v6.827H0z"/><path id="_464022240" class="fil0" fill="none" d="M.853.853h5.12v5.12H.853z"/></g><path class="fil1" d="M1.813.853H5.12v5.12l-.188-.213-1.519-1.73-1.519 1.73-.187.213V.853h.106zm.214.64H4.8v1.494H2.027V1.493z" fill="#424242"/><path class="fil2" d="M2.906 2.044a.247.247 0 0 0-.085-.186c-.053-.047-.133-.07-.24-.07-.065 0-.12.01-.166.03a.23.23 0 0 0-.106.085.22.22 0 0 0 .041.291.462.462 0 0 0 .193.084c.071.018.117.03.137.037.03.01.05.022.062.037.011.014.017.03.017.05a.104.104 0 0 1-.042.082c-.027.024-.069.035-.124.035a.185.185 0 0 1-.124-.039.202.202 0 0 1-.06-.123l-.167.016a.322.322 0 0 0 .103.217c.057.049.14.074.246.074.074 0 .135-.01.184-.031a.248.248 0 0 0 .155-.23.252.252 0 0 0-.034-.136.24.24 0 0 0-.093-.086.837.837 0 0 0-.185-.06.445.445 0 0 1-.157-.057.065.065 0 0 1-.025-.052c0-.022.009-.04.027-.052a.195.195 0 0 1 .117-.03c.048 0 .084.009.108.028.024.019.04.05.047.094l.171-.008zm1.603.068a.272.272 0 0 0-.216-.09.262.262 0 0 0-.202.086.338.338 0 0 0-.08.239c0 .085.02.155.061.211.052.07.13.104.237.104a.288.288 0 0 0 .168-.046.265.265 0 0 0 .099-.135l-.162-.027a.128.128 0 0 1-.04.067.1.1 0 0 1-.063.02.123.123 0 0 1-.094-.04.164.164 0 0 1-.039-.112h.407c.002-.124-.023-.217-.076-.277zm-.294.073a.112.112 0 0 1 .088-.04c.033 0 .061.013.084.037.023.025.035.06.036.108h-.242a.15.15 0 0 1 .034-.105zm-.322.464v-.847H3.73v.847h.162zm-.344-.536a.161.161 0 0 0-.075-.066.388.388 0 0 0-.162-.025c-.08 0-.14.014-.18.042a.23.23 0 0 0-.085.132l.147.027a.118.118 0 0 1 .04-.06.115.115 0 0 1 .067-.017c.043 0 .072.006.087.02.015.013.023.035.023.066v.017a.887.887 0 0 1-.157.04.549.549 0 0 0-.13.037.162.162 0 0 0-.069.063.175.175 0 0 0-.025.092.17.17 0 0 0 .055.13.21.21 0 0 0 .149.051.256.256 0 0 0 .19-.08.638.638 0 0 0 .021.067h.16a.348.348 0 0 1-.028-.083.645.645 0 0 1-.008-.119l.002-.19a.335.335 0 0 0-.022-.144zm-.237.266c.045-.01.078-.018.1-.025v.033a.315.315 0 0 1-.007.079.1.1 0 0 1-.039.053.141.141 0 0 1-.084.03.089.089 0 0 1-.064-.026.08.08 0 0 1-.026-.059c0-.023.011-.042.032-.057a.307.307 0 0 1 .088-.028z" fill="#64B5F6"/></g><metadata><rdf:RDF xmlns:rdf="http://www.w3.org/1999/02/22-rdf-syntax-ns#" xmlns:rdfs="http://www.w3.org/2000/01/rdf-schema#" xmlns:dc="http://purl.org/dc/elements/1.1/"><rdf:Description about="https://iconscout.com/legal#licenses" dc:title="sale,tag" dc:description="sale,tag" dc:publisher="Iconscout" dc:date="2018-01-24" dc:format="image/svg+xml" dc:language="en"><dc:creator><rdf:Bag><rdf:li>Icon Bunny</rdf:li></rdf:Bag></dc:creator></rdf:Description></rdf:RDF></metadata></svg>