<?xml version="1.0" encoding="UTF-8"?><!DOCTYPE svg PUBLIC "-//W3C//DTD SVG 1.1//EN" "http://www.w3.org/Graphics/SVG/1.1/DTD/svg11.dtd"><svg xmlns="http://www.w3.org/2000/svg" xmlns:xlink="http://www.w3.org/1999/xlink" xml:space="preserve" width="6.82666in" height="6.82666in" viewBox="0 0 6.82666 6.82666" shape-rendering="geometricPrecision" text-rendering="geometricPrecision" image-rendering="optimizeQuality" fill-rule="evenodd" clip-rule="evenodd"><defs><style type="text/css"><![CDATA[
    .fil1 {fill:none}
    .fil0 {fill:#424242}
    .fil2 {fill:#424242;fill-rule:nonzero}
    .fil3 {fill:#64B5F6;fill-rule:nonzero}
   ]]></style></defs><g id="Layer_x0020_1"><path class="fil0" d="M4.686 1.385c.55.786-.18 1.807-.682 2.51-.07.098-.135.189-.189.268l.297.537.07.127-.143.022a.332.332 0 0 0-.123.045.396.396 0 0 0-.106.096l-.033.042-.052-.003-.019-.001-.049-.003-.028-.04-.183-.263-.176.267-.027.041-.05.004-.018.002-.052.004-.034-.041a.396.396 0 0 0-.108-.093.332.332 0 0 0-.124-.043l-.144-.018.067-.129.284-.544c-.056-.078-.124-.167-.196-.263-.52-.691-1.273-1.694-.742-2.493l.092-.138.08.145L3.432 3.47l1.082-2.072.077-.148.096.136zm-1.25 2.526a.139.139 0 1 1 .004.278.139.139 0 0 1-.004-.278z" fill="#424242"/><g id="_464017656"><path id="_464018544" class="fil1" fill="none" d="M0 0h6.827v6.827H0z"/><path id="_464017872" class="fil1" fill="none" d="M.853.853h5.12v5.12H.853z"/></g><path class="fil2" d="M3.738 5.236a.455.455 0 0 0 .388.515.455.455 0 0 0 .514-.388.455.455 0 0 0-.388-.514.455.455 0 0 0-.514.387zm-.074.46a.657.657 0 0 1 .616-1.048.657.657 0 0 1 .56.743.657.657 0 0 1-.742.56.657.657 0 0 1-.434-.255z" fill="#424242" fill-rule="nonzero"/><path class="fil2" d="M2.266 5.254a.455.455 0 0 0 .388.515.455.455 0 0 0 .515-.388.455.455 0 0 0-.388-.515.455.455 0 0 0-.515.388zm-.074.46a.657.657 0 0 1 .616-1.048.657.657 0 0 1 .561.743.657.657 0 0 1-.742.56.657.657 0 0 1-.435-.255z" fill="#424242" fill-rule="nonzero"/><path class="fil3" d="M3.498 1.277h-.214V.851h.214v.426zm0 1.734v-.24h-.214v.24h.214zm0-.454h-.214v-.426h.214v.426zm0-.64h-.214v-.426h.214v.426z" fill="#64B5F6" fill-rule="nonzero"/></g><metadata><rdf:RDF xmlns:rdf="http://www.w3.org/1999/02/22-rdf-syntax-ns#" xmlns:rdfs="http://www.w3.org/2000/01/rdf-schema#" xmlns:dc="http://purl.org/dc/elements/1.1/"><rdf:Description about="https://iconscout.com/legal#licenses" dc:title="cut" dc:description="cut" dc:publisher="Iconscout" dc:date="2018-01-24" dc:format="image/svg+xml" dc:language="en"><dc:creator><rdf:Bag><rdf:li>Icon Bunny</rdf:li></rdf:Bag></dc:creator></rdf:Description></rdf:RDF></metadata></svg>