<?xml version="1.0" encoding="UTF-8"?><!DOCTYPE svg PUBLIC "-//W3C//DTD SVG 1.1//EN" "http://www.w3.org/Graphics/SVG/1.1/DTD/svg11.dtd"><svg xmlns="http://www.w3.org/2000/svg" xmlns:xlink="http://www.w3.org/1999/xlink" xml:space="preserve" width="6.82666in" height="6.82666in" viewBox="0 0 6.82666 6.82666" shape-rendering="geometricPrecision" text-rendering="geometricPrecision" image-rendering="optimizeQuality" fill-rule="evenodd" clip-rule="evenodd"><defs><style type="text/css"><![CDATA[
    .fil0 {fill:none}
    .fil1 {fill:#424242}
    .fil2 {fill:#64B5F6;fill-rule:nonzero}
   ]]></style></defs><g id="Layer_x0020_1"><g id="_464029128"><path id="_464030016" class="fil0" fill="none" d="M0 0h6.827v6.827H0z"/><path id="_464029200" class="fil0" fill="none" d="M.853.853h5.12v5.12H.853z"/></g><path class="fil1" d="M.984 1.665h4.859c.059 0 .107.048.107.107v1.81a.107.107 0 0 1-.107.107h-.678a1.033 1.033 0 1 0-1.962 0H.983a.107.107 0 0 1-.106-.107v-1.81c0-.059.048-.107.107-.107z" fill="#424242"/><path class="fil2" d="M4.184 2.444a.922.922 0 0 1 .925.925.922.922 0 0 1-.271.654l-.004.004.847.977-.18.157-.859-.988a.92.92 0 0 1-1.112-.15.922.922 0 0 1 0-1.308.922.922 0 0 1 .654-.271z" fill="#64B5F6" fill-rule="nonzero"/></g><metadata><rdf:RDF xmlns:rdf="http://www.w3.org/1999/02/22-rdf-syntax-ns#" xmlns:rdfs="http://www.w3.org/2000/01/rdf-schema#" xmlns:dc="http://purl.org/dc/elements/1.1/"><rdf:Description about="https://iconscout.com/legal#licenses" dc:title="search,bar" dc:description="search,bar" dc:publisher="Iconscout" dc:date="2018-01-24" dc:format="image/svg+xml" dc:language="en"><dc:creator><rdf:Bag><rdf:li>Icon Bunny</rdf:li></rdf:Bag></dc:creator></rdf:Description></rdf:RDF></metadata></svg>