<?xml version="1.0" encoding="UTF-8"?><!DOCTYPE svg PUBLIC "-//W3C//DTD SVG 1.1//EN" "http://www.w3.org/Graphics/SVG/1.1/DTD/svg11.dtd"><svg xmlns="http://www.w3.org/2000/svg" xmlns:xlink="http://www.w3.org/1999/xlink" xml:space="preserve" width="6.82666in" height="6.82666in" viewBox="0 0 6.82666 6.82666" shape-rendering="geometricPrecision" text-rendering="geometricPrecision" image-rendering="optimizeQuality" fill-rule="evenodd" clip-rule="evenodd"><defs><style type="text/css"><![CDATA[
    .fil0 {fill:none}
    .fil1 {fill:#424242}
    .fil2 {fill:#64B5F6}
   ]]></style></defs><g id="Layer_x0020_1"><g id="_464044368"><path id="_464044728" class="fil0" fill="none" d="M0 0h6.827v6.827H0z"/><path id="_464044320" class="fil0" fill="none" d="M.853.853h5.12v5.12H.853z"/></g><path class="fil1" d="M5.973 2.027V5.76H.853V2.027h5.12zM3.757 4l1.156 1.155-.151.151L3.595 4.14a.993.993 0 0 1-1.271-.116.994.994 0 0 1 0-1.41.994.994 0 0 1 1.41 0A.994.994 0 0 1 3.757 4z" fill="#424242"/><path class="fil2" d="M3.609 4.003l.07-.075a.887.887 0 0 0-.02-1.239.888.888 0 0 0-1.26 0 .888.888 0 0 0 0 1.26.888.888 0 0 0 1.135.104l.074-.05z" fill="#64B5F6"/><path class="fil2" d="M5.867 1.813h.106v-.746H.853v.746h5.014zm-3.92-.426a.16.16 0 1 1 0 .32.16.16 0 0 1 0-.32zm-.507 0a.16.16 0 1 1 0 .32.16.16 0 0 1 0-.32z" fill="#64B5F6"/></g><metadata><rdf:RDF xmlns:rdf="http://www.w3.org/1999/02/22-rdf-syntax-ns#" xmlns:rdfs="http://www.w3.org/2000/01/rdf-schema#" xmlns:dc="http://purl.org/dc/elements/1.1/"><rdf:Description about="https://iconscout.com/legal#licenses" dc:title="browse" dc:description="browse" dc:publisher="Iconscout" dc:date="2018-01-24" dc:format="image/svg+xml" dc:language="en"><dc:creator><rdf:Bag><rdf:li>Icon Bunny</rdf:li></rdf:Bag></dc:creator></rdf:Description></rdf:RDF></metadata></svg>