<?xml version="1.0" encoding="UTF-8"?><!DOCTYPE svg PUBLIC "-//W3C//DTD SVG 1.1//EN" "http://www.w3.org/Graphics/SVG/1.1/DTD/svg11.dtd"><svg xmlns="http://www.w3.org/2000/svg" xmlns:xlink="http://www.w3.org/1999/xlink" xml:space="preserve" width="6.82666in" height="6.82666in" viewBox="0 0 6.82666 6.82666" shape-rendering="geometricPrecision" text-rendering="geometricPrecision" image-rendering="optimizeQuality" fill-rule="evenodd" clip-rule="evenodd"><defs><style type="text/css"><![CDATA[
    .fil0 {fill:none}
    .fil1 {fill:#424242;fill-rule:nonzero}
    .fil2 {fill:#64B5F6;fill-rule:nonzero}
   ]]></style></defs><g id="Layer_x0020_1"><g id="_464032440"><path id="_464032368" class="fil0" fill="none" d="M0 0h6.827v6.827H0z"/><path id="_464032104" class="fil0" fill="none" d="M.853.853h5.12v5.12H.853z"/></g><path class="fil1" d="M1.649 1.813h4.044a.2.2 0 0 1 .056.008L3.67 3.771l-2.078-1.95a.197.197 0 0 1 .056-.008zm4.244.188a.2.2 0 0 1 0 .012v2.8a.2.2 0 0 1-.2.2H1.65a.2.2 0 0 1-.2-.2v-.546h1.084V3.84H1.45v-.213h1.084V3.2H1.45V2.013a.2.2 0 0 1 0-.012l2.143 2.011.08.074.078-.074 2.143-2.011z" fill="#424242" fill-rule="nonzero"/><path class="fil2" d="M.933 3.307h1.494v.213H.933v-.213zm0 .64h1.494v.213H.933v-.213z" fill="#64B5F6" fill-rule="nonzero"/></g><metadata><rdf:RDF xmlns:rdf="http://www.w3.org/1999/02/22-rdf-syntax-ns#" xmlns:rdfs="http://www.w3.org/2000/01/rdf-schema#" xmlns:dc="http://purl.org/dc/elements/1.1/"><rdf:Description about="https://iconscout.com/legal#licenses" dc:title="sending,message" dc:description="sending,message" dc:publisher="Iconscout" dc:date="2018-01-24" dc:format="image/svg+xml" dc:language="en"><dc:creator><rdf:Bag><rdf:li>Icon Bunny</rdf:li></rdf:Bag></dc:creator></rdf:Description></rdf:RDF></metadata></svg>