<?xml version="1.0" encoding="UTF-8"?><!DOCTYPE svg PUBLIC "-//W3C//DTD SVG 1.1//EN" "http://www.w3.org/Graphics/SVG/1.1/DTD/svg11.dtd"><svg xmlns="http://www.w3.org/2000/svg" xmlns:xlink="http://www.w3.org/1999/xlink" xml:space="preserve" width="6.82666in" height="6.82666in" viewBox="0 0 6.82666 6.82666" shape-rendering="geometricPrecision" text-rendering="geometricPrecision" image-rendering="optimizeQuality" fill-rule="evenodd" clip-rule="evenodd"><defs><style type="text/css"><![CDATA[
    .fil0 {fill:none}
    .fil2 {fill:#424242;fill-rule:nonzero}
    .fil1 {fill:#64B5F6;fill-rule:nonzero}
   ]]></style></defs><g id="Layer_x0020_1"><g id="_461847408"><path id="_461847120" class="fil0" fill="none" d="M0 0h6.827v6.827H0z"/><path id="_461846784" class="fil0" fill="none" d="M.853.853h5.12v5.12H.853z"/></g><path class="fil1" d="M2.111 1.027a.674.674 0 0 1 .655.507.645.645 0 0 1 .49.112.656.656 0 0 1-.379 1.195H1.511a.656.656 0 0 1-.657-.687.655.655 0 0 1 .604-.627.677.677 0 0 1 .653-.5z" fill="#64B5F6" fill-rule="nonzero"/><path class="fil2" d="M2.686 3.186h2.872c.079 0 .15.036.201.093a.31.31 0 0 1 .078.206v1.689a.31.31 0 0 1-.078.207.269.269 0 0 1-.2.092H2.685a.269.269 0 0 1-.2-.092.31.31 0 0 1-.079-.207V3.485c0-.08.03-.153.078-.206a.269.269 0 0 1 .201-.093z" fill="#424242" fill-rule="nonzero"/><path class="fil2" d="M2.38 5.582a.109.109 0 0 0 0 .218h3.484a.109.109 0 0 0 0-.218H2.38z" fill="#424242" fill-rule="nonzero"/><path class="fil2" d="M1.532 3.349a1.35 1.35 0 0 0-.026.959c.1.29.308.597.68.9l-.137.169c-.406-.332-.636-.674-.747-.998a1.565 1.565 0 0 1 .029-1.112l.201.082z" fill="#424242" fill-rule="nonzero"/><path class="fil2" fill="#424242" fill-rule="nonzero" d="M.891 3.494l.523-.435.42.549z"/><path class="fil2" d="M5.02 2.541a1.35 1.35 0 0 0-.554-.783c-.253-.172-.604-.294-1.084-.315l.01-.217c.524.023.912.16 1.196.352.37.25.56.595.642.909l-.21.054z" fill="#424242" fill-rule="nonzero"/><path class="fil2" fill="#424242" fill-rule="nonzero" d="M5.431 2.094l-.178.634-.101-.024-.54-.13z"/></g><metadata><rdf:RDF xmlns:rdf="http://www.w3.org/1999/02/22-rdf-syntax-ns#" xmlns:rdfs="http://www.w3.org/2000/01/rdf-schema#" xmlns:dc="http://purl.org/dc/elements/1.1/"><rdf:Description about="https://iconscout.com/legal#licenses" dc:title="data,share" dc:description="data,share" dc:publisher="Iconscout" dc:date="2018-01-24" dc:format="image/svg+xml" dc:language="en"><dc:creator><rdf:Bag><rdf:li>Icon Bunny</rdf:li></rdf:Bag></dc:creator></rdf:Description></rdf:RDF></metadata></svg>