<?xml version="1.0" encoding="UTF-8"?><!DOCTYPE svg PUBLIC "-//W3C//DTD SVG 1.1//EN" "http://www.w3.org/Graphics/SVG/1.1/DTD/svg11.dtd"><svg xmlns="http://www.w3.org/2000/svg" xmlns:xlink="http://www.w3.org/1999/xlink" xml:space="preserve" width="6.82666in" height="6.82666in" viewBox="0 0 6.82666 6.82666" shape-rendering="geometricPrecision" text-rendering="geometricPrecision" image-rendering="optimizeQuality" fill-rule="evenodd" clip-rule="evenodd"><defs><style type="text/css"><![CDATA[
    .fil0 {fill:none}
    .fil1 {fill:#424242;fill-rule:nonzero}
    .fil2 {fill:#64B5F6;fill-rule:nonzero}
   ]]></style></defs><g id="Layer_x0020_1"><g id="_461849808"><path id="_461849976" class="fil0" fill="none" d="M0 0h6.827v6.827H0z"/><path id="_461850048" class="fil0" fill="none" d="M.853.853h5.12v5.12H.853z"/></g><path class="fil1" d="M1.443 1.593c.343.136.694.233 1.055.29v.88h.439v-.829a5.315 5.315 0 0 0 .953-.015v.844h.438v-.904c.347-.06.7-.15 1.062-.269l.133-.044.014.14.402 4.164.012.123H.875l.012-.123.403-4.163.014-.15.139.056z" fill="#424242" fill-rule="nonzero"/><path class="fil2" d="M2.605 2.656V1.208a.353.353 0 0 1 .354-.355h.909a.353.353 0 0 1 .354.355v1.448h-.225V1.208a.129.129 0 0 0-.038-.092.129.129 0 0 0-.091-.038h-.909a.129.129 0 0 0-.13.13v1.448h-.224z" fill="#64B5F6" fill-rule="nonzero"/></g><metadata><rdf:RDF xmlns:rdf="http://www.w3.org/1999/02/22-rdf-syntax-ns#" xmlns:rdfs="http://www.w3.org/2000/01/rdf-schema#" xmlns:dc="http://purl.org/dc/elements/1.1/"><rdf:Description about="https://iconscout.com/legal#licenses" dc:title="shopping,bags" dc:description="shopping,bags" dc:publisher="Iconscout" dc:date="2018-01-24" dc:format="image/svg+xml" dc:language="en"><dc:creator><rdf:Bag><rdf:li>Icon Bunny</rdf:li></rdf:Bag></dc:creator></rdf:Description></rdf:RDF></metadata></svg>