<?xml version="1.0" encoding="UTF-8"?><!DOCTYPE svg PUBLIC "-//W3C//DTD SVG 1.1//EN" "http://www.w3.org/Graphics/SVG/1.1/DTD/svg11.dtd"><svg xmlns="http://www.w3.org/2000/svg" xmlns:xlink="http://www.w3.org/1999/xlink" xml:space="preserve" width="6.82666in" height="6.82666in" viewBox="0 0 6.82666 6.82666" shape-rendering="geometricPrecision" text-rendering="geometricPrecision" image-rendering="optimizeQuality" fill-rule="evenodd" clip-rule="evenodd"><defs><style type="text/css"><![CDATA[
    .fil0 {fill:none}
    .fil2 {fill:#424242}
    .fil1 {fill:#64B5F6}
   ]]></style></defs><g id="Layer_x0020_1"><path class="fil0" fill="none" d="M0 0h6.827v6.827H0z"/><g id="_461857968"><path id="_461858040" class="fil0" fill="none" d="M0 0h6.827v6.827H0z"/><path id="_461857728" class="fil0" fill="none" d="M.853.853h5.12v5.12H.853z"/></g><path class="fil1" d="M5.333 5.12H1.356v.653a.2.2 0 0 0 .2.2H5.27a.2.2 0 0 0 .2-.2V5.12h-.137zm-1.92.17a.256.256 0 1 1 0 .513.256.256 0 0 1 0-.513z" fill="#64B5F6"/><path class="fil2" d="M5.47 4.907V1.054a.2.2 0 0 0-.2-.2H1.556a.2.2 0 0 0-.2.2v3.853H5.47zM1.936 1.799h2.956v.214H1.935v-.214zm0 .71h2.956v.213H1.935v-.213zm0 .709h2.956v.213H1.935v-.213z" fill="#424242"/></g><metadata><rdf:RDF xmlns:rdf="http://www.w3.org/1999/02/22-rdf-syntax-ns#" xmlns:rdfs="http://www.w3.org/2000/01/rdf-schema#" xmlns:dc="http://purl.org/dc/elements/1.1/"><rdf:Description about="https://iconscout.com/legal#licenses" dc:title="smart,device" dc:description="smart,device" dc:publisher="Iconscout" dc:date="2018-01-24" dc:format="image/svg+xml" dc:language="en"><dc:creator><rdf:Bag><rdf:li>Icon Bunny</rdf:li></rdf:Bag></dc:creator></rdf:Description></rdf:RDF></metadata></svg>