<?xml version="1.0" encoding="UTF-8"?><!DOCTYPE svg PUBLIC "-//W3C//DTD SVG 1.1//EN" "http://www.w3.org/Graphics/SVG/1.1/DTD/svg11.dtd"><svg xmlns="http://www.w3.org/2000/svg" xmlns:xlink="http://www.w3.org/1999/xlink" xml:space="preserve" width="6.82666in" height="6.82666in" viewBox="0 0 6.82666 6.82666" shape-rendering="geometricPrecision" text-rendering="geometricPrecision" image-rendering="optimizeQuality" fill-rule="evenodd" clip-rule="evenodd"><defs><style type="text/css"><![CDATA[
    .fil0 {fill:none}
    .fil2 {fill:#424242}
    .fil1 {fill:#64B5F6}
    .fil3 {fill:#424242;fill-rule:nonzero}
   ]]></style></defs><g id="Layer_x0020_1"><g id="_461848008"><path id="_461848056" class="fil0" fill="none" d="M0 0h6.827v6.827H0z"/><path id="_461847984" class="fil0" fill="none" d="M.853.853h5.12v5.12H.853z"/></g><path class="fil1" d="M.96.853h2.56v2.342h-.962a.382.382 0 0 0-.285.13.424.424 0 0 0-.107.283v.659H.96V.853zm2.319 3.414V3.99v.276zM1.387 1.28h1.6v.213h-1.6V1.28zm0 1.28h1.6v.213h-1.6V2.56zm0-.64h1.6v.213h-1.6V1.92z" fill="#64B5F6"/><path class="fil2" d="M2.558 3.302h2.935c.08 0 .153.036.206.095.049.055.08.13.08.21v1.727c0 .081-.031.156-.08.21a.275.275 0 0 1-.206.095H2.558a.275.275 0 0 1-.206-.094.317.317 0 0 1-.08-.211V3.608c0-.082.031-.156.08-.211a.275.275 0 0 1 .206-.095zm.827.582v1.173h-.213V3.884h.213zm1.494 0v1.173h-.214V3.884h.214zm-.747.32v.853H3.92v-.853h.213z" fill="#424242"/><path class="fil3" d="M2.245 5.75a.111.111 0 0 0 0 .223h3.561a.111.111 0 1 0 0-.222H2.245z" fill="#424242" fill-rule="nonzero"/></g><metadata><rdf:RDF xmlns:rdf="http://www.w3.org/1999/02/22-rdf-syntax-ns#" xmlns:rdfs="http://www.w3.org/2000/01/rdf-schema#" xmlns:dc="http://purl.org/dc/elements/1.1/"><rdf:Description about="https://iconscout.com/legal#licenses" dc:title="statistical,report" dc:description="statistical,report" dc:publisher="Iconscout" dc:date="2018-01-24" dc:format="image/svg+xml" dc:language="en"><dc:creator><rdf:Bag><rdf:li>Icon Bunny</rdf:li></rdf:Bag></dc:creator></rdf:Description></rdf:RDF></metadata></svg>