<?xml version="1.0" encoding="UTF-8"?><!DOCTYPE svg PUBLIC "-//W3C//DTD SVG 1.1//EN" "http://www.w3.org/Graphics/SVG/1.1/DTD/svg11.dtd"><svg xmlns="http://www.w3.org/2000/svg" xmlns:xlink="http://www.w3.org/1999/xlink" xml:space="preserve" width="6.82666in" height="6.82666in" viewBox="0 0 6.82666 6.82666" shape-rendering="geometricPrecision" text-rendering="geometricPrecision" image-rendering="optimizeQuality" fill-rule="evenodd" clip-rule="evenodd"><defs><style type="text/css"><![CDATA[
    .fil0 {fill:none}
    .fil1 {fill:#64B5F6}
    .fil2 {fill:#424242;fill-rule:nonzero}
   ]]></style></defs><g id="Layer_x0020_1"><g id="_464028384"><path id="_464028144" class="fil0" fill="none" d="M0 0h6.827v6.827H0z"/><path id="_464028312" class="fil0" fill="none" d="M.853.853h5.12v5.12H.853z"/></g><path class="fil1" d="M4.045 3.77l1.83 1.831a.218.218 0 0 1-.308.309L3.73 4.07a1.857 1.857 0 0 0 .316-.3z" fill="#64B5F6"/><path class="fil2" d="M2.625.853c.48 0 .914.195 1.228.51.314.314.509.748.509 1.228s-.195.914-.509 1.228a1.732 1.732 0 0 1-1.228.509c-.48 0-.914-.195-1.229-.509a1.732 1.732 0 0 1-.509-1.228c0-.48.195-.914.51-1.229A1.732 1.732 0 0 1 2.624.853zM1.36 2.955c-.068.116.11.219.177.102l.394-.684.384.665c-.015.02.13.105.182-.008l.325-.564.454.455s.106.038.145 0c.058-.058.287-.492.347-.595.067-.117-.11-.218-.177-.102l-.264.457-.452-.452a.103.103 0 0 0-.163.02l-.308.534-.38-.657a.103.103 0 0 0-.181-.008l-.483.837z" fill="#424242" fill-rule="nonzero"/></g><metadata><rdf:RDF xmlns:rdf="http://www.w3.org/1999/02/22-rdf-syntax-ns#" xmlns:rdfs="http://www.w3.org/2000/01/rdf-schema#" xmlns:dc="http://purl.org/dc/elements/1.1/"><rdf:Description about="https://iconscout.com/legal#licenses" dc:title="statistical,analysis" dc:description="statistical,analysis" dc:publisher="Iconscout" dc:date="2018-01-24" dc:format="image/svg+xml" dc:language="en"><dc:creator><rdf:Bag><rdf:li>Icon Bunny</rdf:li></rdf:Bag></dc:creator></rdf:Description></rdf:RDF></metadata></svg>