<?xml version="1.0" encoding="UTF-8"?><!DOCTYPE svg PUBLIC "-//W3C//DTD SVG 1.1//EN" "http://www.w3.org/Graphics/SVG/1.1/DTD/svg11.dtd"><svg xmlns="http://www.w3.org/2000/svg" xmlns:xlink="http://www.w3.org/1999/xlink" xml:space="preserve" width="6.82666in" height="6.82666in" viewBox="0 0 6.82666 6.82666" shape-rendering="geometricPrecision" text-rendering="geometricPrecision" image-rendering="optimizeQuality" fill-rule="evenodd" clip-rule="evenodd"><defs><style type="text/css"><![CDATA[
    .fil0 {fill:none}
    .fil1 {fill:#424242}
    .fil2 {fill:#64B5F6}
   ]]></style></defs><g id="Layer_x0020_1"><g id="_461864496"><path id="_461864592" class="fil0" fill="none" d="M0 0h6.827v6.827H0z"/><path id="_461864856" class="fil0" fill="none" d="M.853.853h5.12v5.12H.853z"/></g><path class="fil1" d="M5.973 2.262V5.21a.25.25 0 0 1-.25.25H1.104a.25.25 0 0 1-.25-.25V2.26h5.119zM2.453 4.8V3.093H2.24V4.8h.213zm2.134 0V3.627h-.214V4.8h.214zm-.534 0V3.2H3.84v1.6h.213zm-.533 0V2.88h-.213V4.8h.213zm-.533 0V3.716h-.214V4.8h.214z" fill="#424242"/><path class="fil2" d="M1.104 1.365h4.619a.25.25 0 0 1 .25.25v.433H.853v-.432a.25.25 0 0 1 .251-.25zM5.38 1.6a.154.154 0 1 1 0 .307.154.154 0 0 1 0-.307z" fill="#64B5F6"/></g><metadata><rdf:RDF xmlns:rdf="http://www.w3.org/1999/02/22-rdf-syntax-ns#" xmlns:rdfs="http://www.w3.org/2000/01/rdf-schema#" xmlns:dc="http://purl.org/dc/elements/1.1/"><rdf:Description about="https://iconscout.com/legal#licenses" dc:title="statistics" dc:description="statistics" dc:publisher="Iconscout" dc:date="2018-01-24" dc:format="image/svg+xml" dc:language="en"><dc:creator><rdf:Bag><rdf:li>Icon Bunny</rdf:li></rdf:Bag></dc:creator></rdf:Description></rdf:RDF></metadata></svg>