<?xml version="1.0" encoding="UTF-8"?><!DOCTYPE svg PUBLIC "-//W3C//DTD SVG 1.1//EN" "http://www.w3.org/Graphics/SVG/1.1/DTD/svg11.dtd"><svg xmlns="http://www.w3.org/2000/svg" xmlns:xlink="http://www.w3.org/1999/xlink" xml:space="preserve" width="6.82666in" height="6.82666in" viewBox="0 0 6.82666 6.82666" shape-rendering="geometricPrecision" text-rendering="geometricPrecision" image-rendering="optimizeQuality" fill-rule="evenodd" clip-rule="evenodd"><defs><style type="text/css"><![CDATA[
    .fil0 {fill:none}
    .fil3 {fill:#424242}
    .fil1 {fill:#64B5F6}
    .fil2 {fill:#64B5F6;fill-rule:nonzero}
   ]]></style></defs><g id="Layer_x0020_1"><g id="_461856576"><path id="_461856672" class="fil0" fill="none" d="M0 0h6.827v6.827H0z"/><path id="_461856048" class="fil0" fill="none" d="M.853.853h5.12v5.12H.853z"/></g><circle class="fil1" cx="2.71754" cy="2.15254" r="0.131614" fill="#64B5F6"/><path class="fil2" d="M1.265 2.836l.586-1.341.094.04-.094-.04c.02-.047.07-.07.117-.06l.204.032-.002.006-.576 1.32a.215.215 0 0 0 .005.192l1.604 2.913c-.014.032-.11.039-.153.063a.103.103 0 0 1-.14-.04L1.267 2.933a.102.102 0 0 1 0-.098z" fill="#64B5F6" fill-rule="nonzero"/><path class="fil2" d="M1.7 1.876a.051.051 0 1 0 .096-.033c-.124-.365-.092-.637 0-.782.043-.066.096-.102.151-.105.055-.003.113.028.165.096l.082-.061C2.12.892 2.03.849 1.942.854c-.088.004-.171.057-.232.152-.107.167-.147.472-.01.87z" fill="#64B5F6" fill-rule="nonzero"/><path class="fil2" d="M2.143 1.462a.673.673 0 0 1 .08-.4c.042-.067.096-.103.15-.106.055-.003.114.028.166.096.126.168.205.538.11 1.166a.051.051 0 0 0 .1.015c.1-.66.012-1.057-.128-1.242-.075-.099-.165-.142-.253-.137-.088.004-.17.057-.231.152a.762.762 0 0 0-.097.44l.103.016z" fill="#64B5F6" fill-rule="nonzero"/><path class="fil3" d="M2.395 1.435l.215.034v.001c.017.137.017.28.008.421a.26.26 0 0 0-.142.37.258.258 0 0 0 .474-.053.258.258 0 0 0-.099-.283c.01-.14.011-.282-.001-.42l.991.152c.033.005.06.025.075.052L5.56 4.696c.027.05.009.112-.04.14L3.476 5.96a.103.103 0 0 1-.14-.04L1.694 2.933a.102.102 0 0 1-.001-.098l.586-1.341c-.013-.02.066-.072.117-.06z" fill="#424242"/></g><metadata><rdf:RDF xmlns:rdf="http://www.w3.org/1999/02/22-rdf-syntax-ns#" xmlns:rdfs="http://www.w3.org/2000/01/rdf-schema#" xmlns:dc="http://purl.org/dc/elements/1.1/"><rdf:Description about="https://iconscout.com/legal#licenses" dc:title="tags" dc:description="tags" dc:publisher="Iconscout" dc:date="2018-01-24" dc:format="image/svg+xml" dc:language="en"><dc:creator><rdf:Bag><rdf:li>Icon Bunny</rdf:li></rdf:Bag></dc:creator></rdf:Description></rdf:RDF></metadata></svg>