<?xml version="1.0" encoding="UTF-8"?><!DOCTYPE svg PUBLIC "-//W3C//DTD SVG 1.1//EN" "http://www.w3.org/Graphics/SVG/1.1/DTD/svg11.dtd"><svg xmlns="http://www.w3.org/2000/svg" xmlns:xlink="http://www.w3.org/1999/xlink" xml:space="preserve" width="6.82666in" height="6.82666in" viewBox="0 0 6.82666 6.82666" shape-rendering="geometricPrecision" text-rendering="geometricPrecision" image-rendering="optimizeQuality" fill-rule="evenodd" clip-rule="evenodd"><defs><style type="text/css"><![CDATA[
    .fil0 {fill:none}
    .fil1 {fill:#424242}
    .fil3 {fill:#64B5F6}
    .fil2 {fill:#64B5F6;fill-rule:nonzero}
   ]]></style></defs><g id="Layer_x0020_1"><g id="_461872920"><path id="_461873016" class="fil0" fill="none" d="M0 0h6.827v6.827H0z"/><path id="_461873184" class="fil0" fill="none" d="M.853.853h5.12v5.12H.853z"/></g><path class="fil1" d="M3.583 1.129c.53.049 1.028.28 1.409.662.38.38.613.878.662 1.409h-.429a1.86 1.86 0 0 0-.535-1.107c-.3-.301-.69-.488-1.107-.535v-.43zm2.07 2.498a2.287 2.287 0 0 1-.661 1.409 2.287 2.287 0 0 1-1.41.662v-.429a1.86 1.86 0 0 0 1.108-.535c.3-.3.487-.69.535-1.107h.429zM3.157 5.698a2.287 2.287 0 0 1-1.41-.662 2.287 2.287 0 0 1-.662-1.41h.43a1.86 1.86 0 0 0 1.642 1.642v.43zM1.084 3.2c.05-.531.282-1.028.663-1.41a2.287 2.287 0 0 1 1.409-.661v.429a1.86 1.86 0 0 0-1.108.535c-.3.3-.487.69-.535 1.107h-.429z" fill="#424242"/><path class="fil2" d="M.96 3.307a.107.107 0 0 0 0 .213h.64a.107.107 0 0 0 0-.213H.96zM3.263 1.6a.107.107 0 0 0 .213 0V.96a.107.107 0 0 0-.213 0v.64zm1.964 1.707a.107.107 0 0 0 0 .213h.64a.107.107 0 0 0 0-.213h-.64zm-1.964 2.56a.107.107 0 0 0 .213 0v-.64a.107.107 0 0 0-.213 0v.64z" fill="#64B5F6" fill-rule="nonzero"/><path class="fil3" d="M3.37 2.667a.745.745 0 0 1 .527 1.274.745.745 0 0 1-1.274-.528.745.745 0 0 1 .746-.746zm0 .186a.558.558 0 0 1 .395.956.558.558 0 0 1-.956-.396.558.558 0 0 1 .56-.56z" fill="#64B5F6"/></g><metadata><rdf:RDF xmlns:rdf="http://www.w3.org/1999/02/22-rdf-syntax-ns#" xmlns:rdfs="http://www.w3.org/2000/01/rdf-schema#" xmlns:dc="http://purl.org/dc/elements/1.1/"><rdf:Description about="https://iconscout.com/legal#licenses" dc:title="target" dc:description="target" dc:publisher="Iconscout" dc:date="2018-01-24" dc:format="image/svg+xml" dc:language="en"><dc:creator><rdf:Bag><rdf:li>Icon Bunny</rdf:li></rdf:Bag></dc:creator></rdf:Description></rdf:RDF></metadata></svg>