<?xml version="1.0" encoding="UTF-8"?><!DOCTYPE svg PUBLIC "-//W3C//DTD SVG 1.1//EN" "http://www.w3.org/Graphics/SVG/1.1/DTD/svg11.dtd"><svg xmlns="http://www.w3.org/2000/svg" xmlns:xlink="http://www.w3.org/1999/xlink" xml:space="preserve" width="6.82666in" height="6.82666in" viewBox="0 0 6.82666 6.82666" shape-rendering="geometricPrecision" text-rendering="geometricPrecision" image-rendering="optimizeQuality" fill-rule="evenodd" clip-rule="evenodd"><defs><style type="text/css"><![CDATA[
    .fil1 {fill:none}
    .fil0 {fill:#424242}
    .fil2 {fill:#64B5F6;fill-rule:nonzero}
   ]]></style></defs><g id="Layer_x0020_1"><path class="fil0" d="M3.22 3.093c.082 0 .16.016.232.045l-.39.43a.213.213 0 0 0 .316.286l.39-.429a.618.618 0 1 1-.548-.332z" fill="#424242"/><g id="_461845488"><path id="_461845368" class="fil1" fill="none" d="M0 0h6.827v6.827H0z"/><path id="_461845272" class="fil1" fill="none" d="M.853.853h5.12v5.12H.853z"/></g><path class="fil0" d="M3.22 1.364c.508 0 .999.163 1.405.468l.009.006-.289.317a1.911 1.911 0 0 0-1.125-.364c-.51 0-.996.201-1.357.562A1.914 1.914 0 0 0 1.3 3.711c0 .511.201.996.563 1.358.36.361.846.562 1.357.562s.997-.2 1.358-.562c.361-.362.562-.847.562-1.358 0-.47-.17-.918-.48-1.27l.289-.317.007.008c.394.433.61.993.61 1.58A2.34 2.34 0 0 1 4.88 5.37a2.34 2.34 0 0 1-1.66.688 2.34 2.34 0 0 1-1.66-.688 2.34 2.34 0 0 1-.686-1.659c0-.624.245-1.218.687-1.66a2.34 2.34 0 0 1 1.66-.687z" fill="#424242"/><path class="fil0" d="M3.22 2.126c.318 0 .625.094.888.272l.01.007-.286.316a1.16 1.16 0 0 0-1.775.99A1.16 1.16 0 0 0 3.22 4.875 1.16 1.16 0 0 0 4.384 3.71c0-.255-.083-.5-.237-.703l.287-.316.008.01c.236.284.363.64.363 1.01A1.58 1.58 0 0 1 3.22 5.296a1.58 1.58 0 0 1-1.12-.465 1.58 1.58 0 0 1-.465-1.12A1.58 1.58 0 0 1 3.22 2.126z" fill="#424242"/><path class="fil2" d="M4.85 1.757L3.142 3.64a.106.106 0 0 0 .158.144L5.009 1.9l.153.139a.107.107 0 0 0 .155-.003l.497-.548a.107.107 0 0 0-.066-.183l-.324-.027-.052-.308a.106.106 0 0 0-.185-.06l-.498.548a.107.107 0 0 0 .003.155l.159.143z" fill="#64B5F6" fill-rule="nonzero"/></g><metadata><rdf:RDF xmlns:rdf="http://www.w3.org/1999/02/22-rdf-syntax-ns#" xmlns:rdfs="http://www.w3.org/2000/01/rdf-schema#" xmlns:dc="http://purl.org/dc/elements/1.1/"><rdf:Description about="https://iconscout.com/legal#licenses" dc:title="target,marketing,i" dc:description="target,marketing,i" dc:publisher="Iconscout" dc:date="2018-01-24" dc:format="image/svg+xml" dc:language="en"><dc:creator><rdf:Bag><rdf:li>Icon Bunny</rdf:li></rdf:Bag></dc:creator></rdf:Description></rdf:RDF></metadata></svg>