<?xml version="1.0" encoding="UTF-8"?><!DOCTYPE svg PUBLIC "-//W3C//DTD SVG 1.1//EN" "http://www.w3.org/Graphics/SVG/1.1/DTD/svg11.dtd"><svg xmlns="http://www.w3.org/2000/svg" xmlns:xlink="http://www.w3.org/1999/xlink" xml:space="preserve" width="6.82666in" height="6.82666in" viewBox="0 0 6.82666 6.82666" shape-rendering="geometricPrecision" text-rendering="geometricPrecision" image-rendering="optimizeQuality" fill-rule="evenodd" clip-rule="evenodd"><defs><style type="text/css"><![CDATA[
    .fil1 {fill:none}
    .fil0 {fill:#424242}
    .fil3 {fill:#64B5F6}
    .fil2 {fill:#64B5F6;fill-rule:nonzero}
   ]]></style></defs><g id="Layer_x0020_1"><path class="fil0" d="M3.538 1.232a2.18 2.18 0 0 1 1.378.634c.349.349.58.815.63 1.334h-.364a.213.213 0 0 0 0 .427h.365c-.05.519-.282.985-.63 1.333a2.18 2.18 0 0 1-1.379.635v-.368a.213.213 0 0 0-.426 0v.36a2.181 2.181 0 0 1-1.29-.627 2.181 2.181 0 0 1-.63-1.333h.364a.213.213 0 0 0 0-.427h-.364c.05-.519.281-.985.63-1.334a2.181 2.181 0 0 1 1.29-.626v.36a.213.213 0 0 0 .426 0v-.368zm-.018.772a.342.342 0 0 1 .243.585.342.342 0 0 1-.375.075l-.429.357a.341.341 0 0 1 .026.307l.694.42a.342.342 0 0 1 .471.014.342.342 0 0 1-.243.585.342.342 0 0 1-.313-.204l-.796.223a.343.343 0 1 1-.02-.215l.789-.221-.72-.438a.341.341 0 0 1-.423-.05.342.342 0 0 1 .243-.585c.045 0 .088.009.127.025l.432-.36a.341.341 0 0 1 .051-.418.342.342 0 0 1 .243-.1z" fill="#424242"/><g id="_464031696"><path id="_464031552" class="fil1" fill="none" d="M0 0h6.827v6.827H0z"/><path id="_464031192" class="fil1" fill="none" d="M.853.853h5.12v5.12H.853z"/></g><path class="fil2" d="M3.218 5.867a.107.107 0 0 0 .214 0v-.64a.107.107 0 0 0-.214 0v.64zm1.964-2.56a.107.107 0 0 0 0 .213h.64a.107.107 0 0 0 0-.213h-.64zM3.218 1.6a.107.107 0 0 0 .214 0V.96a.107.107 0 0 0-.214 0v.64zM.916 3.307a.107.107 0 0 0 0 .213h.64a.107.107 0 0 0 0-.213h-.64z" fill="#64B5F6" fill-rule="nonzero"/><circle class="fil3" cx="2.6637" cy="3.2063" r="0.236307" fill="#64B5F6"/><circle class="fil3" cx="3.52" cy="2.34666" r="0.236307" fill="#64B5F6"/><circle class="fil3" cx="3.90035" cy="4.01368" r="0.236307" fill="#64B5F6"/><circle class="fil3" cx="2.4637" cy="4.29964" r="0.236307" fill="#64B5F6"/></g><metadata><rdf:RDF xmlns:rdf="http://www.w3.org/1999/02/22-rdf-syntax-ns#" xmlns:rdfs="http://www.w3.org/2000/01/rdf-schema#" xmlns:dc="http://purl.org/dc/elements/1.1/"><rdf:Description about="https://iconscout.com/legal#licenses" dc:title="target,marketing,ii" dc:description="target,marketing,ii" dc:publisher="Iconscout" dc:date="2018-01-24" dc:format="image/svg+xml" dc:language="en"><dc:creator><rdf:Bag><rdf:li>Icon Bunny</rdf:li></rdf:Bag></dc:creator></rdf:Description></rdf:RDF></metadata></svg>