<?xml version="1.0" encoding="UTF-8"?><!DOCTYPE svg PUBLIC "-//W3C//DTD SVG 1.1//EN" "http://www.w3.org/Graphics/SVG/1.1/DTD/svg11.dtd"><svg xmlns="http://www.w3.org/2000/svg" xmlns:xlink="http://www.w3.org/1999/xlink" xml:space="preserve" width="6.82666in" height="6.82666in" viewBox="0 0 6.82666 6.82666" shape-rendering="geometricPrecision" text-rendering="geometricPrecision" image-rendering="optimizeQuality" fill-rule="evenodd" clip-rule="evenodd"><defs><style type="text/css"><![CDATA[
    .fil0 {fill:none}
    .fil1 {fill:#424242}
    .fil2 {fill:#64B5F6}
   ]]></style></defs><g id="Layer_x0020_1"><g id="_461862720"><path id="_461862672" class="fil0" fill="none" d="M0 0h6.827v6.827H0z"/><path id="_461862744" class="fil0" fill="none" d="M.853.853h5.12v5.12H.853z"/></g><g id="_461862432"><path id="_461862552" class="fil1" d="M5.973 2.262V5.21a.25.25 0 0 1-.25.25H1.104a.25.25 0 0 1-.25-.25V2.26h5.119zm-3.18.895c.017.027.028.064.028.104 0 .084-.048.152-.108.152s-.11-.068-.11-.152c0-.074.038-.135.088-.15a.805.805 0 0 1 .204-.428.71.71 0 0 1 .522-.232.71.71 0 0 1 .521.232.806.806 0 0 1 .206.434c.042.021.072.077.072.144 0 .084-.049.152-.109.152s-.109-.068-.109-.152a.18.18 0 0 1 .041-.12.7.7 0 0 0-.179-.386.604.604 0 0 0-.443-.197.604.604 0 0 0-.444.197.7.7 0 0 0-.18.402zm.62-.49a.544.544 0 0 1 .386.931.544.544 0 0 1-.327.157h.736a.199.199 0 0 1 .2.2l-.001 1.09v.106H2.42V3.954a.199.199 0 0 1 .199-.2h.736a.544.544 0 0 1-.327-.928.544.544 0 0 1 .385-.16z" fill="#424242"/><path id="_461862168" class="fil2" d="M2.526 5.044H4.3v-1.09a.091.091 0 0 0-.026-.064.096.096 0 0 0-.066-.029h-1.59a.092.092 0 0 0-.065.028.092.092 0 0 0-.027.065v1.09zm.887-1.39l.048-.005a.437.437 0 0 0 .391-.437.437.437 0 0 0-.439-.439.437.437 0 0 0-.439.44.437.437 0 0 0 .392.436l.047.005z" fill="#64B5F6"/></g><path class="fil2" d="M1.104 1.365h4.619a.25.25 0 0 1 .25.25v.433H.853v-.432a.25.25 0 0 1 .251-.25zM5.38 1.6a.154.154 0 1 1 0 .307.154.154 0 0 1 0-.307z" fill="#64B5F6"/></g><metadata><rdf:RDF xmlns:rdf="http://www.w3.org/1999/02/22-rdf-syntax-ns#" xmlns:rdfs="http://www.w3.org/2000/01/rdf-schema#" xmlns:dc="http://purl.org/dc/elements/1.1/"><rdf:Description about="https://iconscout.com/legal#licenses" dc:title="video,call" dc:description="video,call" dc:publisher="Iconscout" dc:date="2018-01-24" dc:format="image/svg+xml" dc:language="en"><dc:creator><rdf:Bag><rdf:li>Icon Bunny</rdf:li></rdf:Bag></dc:creator></rdf:Description></rdf:RDF></metadata></svg>