<?xml version="1.0" encoding="UTF-8"?><!DOCTYPE svg PUBLIC "-//W3C//DTD SVG 1.1//EN" "http://www.w3.org/Graphics/SVG/1.1/DTD/svg11.dtd"><svg xmlns="http://www.w3.org/2000/svg" xmlns:xlink="http://www.w3.org/1999/xlink" xml:space="preserve" width="6.82666in" height="6.82666in" viewBox="0 0 6.82666 6.82666" shape-rendering="geometricPrecision" text-rendering="geometricPrecision" image-rendering="optimizeQuality" fill-rule="evenodd" clip-rule="evenodd"><defs><style type="text/css"><![CDATA[
    .fil0 {fill:none}
    .fil1 {fill:#424242}
    .fil2 {fill:#64B5F6}
   ]]></style></defs><g id="Layer_x0020_1"><g id="_464038824"><path id="_464039712" class="fil0" fill="none" d="M0 0h6.827v6.827H0z"/><path id="_464039688" class="fil0" fill="none" d="M.853.853h5.12v5.12H.853z"/></g><path class="fil1" d="M2.61.853c.46 0 .877.187 1.178.488.302.302.488.718.488 1.178 0 .46-.186.876-.488 1.178a1.66 1.66 0 0 1-1.178.488 1.66 1.66 0 0 1-1.177-.488 1.66 1.66 0 0 1-.488-1.178c0-.46.186-.876.488-1.178A1.66 1.66 0 0 1 2.61.853zm-.213 1.9v-.325a.43.43 0 0 1-.223-.132.331.331 0 0 1-.071-.214c0-.085.027-.156.08-.214a.326.326 0 0 1 .214-.1v-.076h.113v.076c.082.01.148.038.196.085.049.046.08.108.093.186l-.196.025c-.012-.06-.043-.102-.093-.124v.304c.124.033.209.077.254.13a.31.31 0 0 1 .067.207.346.346 0 0 1-.085.236.374.374 0 0 1-.236.119v.145h-.113v-.142a.36.36 0 0 1-.218-.1.411.411 0 0 1-.107-.236l.203-.022a.257.257 0 0 0 .046.107.21.21 0 0 0 .076.065zm.882.26v-.186a.245.245 0 0 1-.127-.075.19.19 0 0 1-.04-.123c0-.048.014-.089.045-.122a.186.186 0 0 1 .122-.057v-.044h.065v.044a.191.191 0 0 1 .112.048.187.187 0 0 1 .053.107l-.112.014c-.007-.035-.025-.058-.053-.07v.173c.07.019.119.044.145.074.025.031.038.07.038.118a.198.198 0 0 1-.048.135.214.214 0 0 1-.135.068V3.2h-.065v-.08a.206.206 0 0 1-.124-.058.235.235 0 0 1-.062-.135l.116-.013a.147.147 0 0 0 .027.061.12.12 0 0 0 .043.038zm0-.466a.084.084 0 0 0-.041.03.079.079 0 0 0-.016.047c0 .016.005.03.014.044a.1.1 0 0 0 .043.032v-.153zm.065.472a.09.09 0 0 0 .054-.03.087.087 0 0 0 .02-.059.079.079 0 0 0-.017-.051.111.111 0 0 0-.057-.033v.173zm-.947-1.081a.147.147 0 0 0-.073.053.138.138 0 0 0-.027.082.13.13 0 0 0 .025.076.174.174 0 0 0 .075.058v-.27zm.113.826a.158.158 0 0 0 .095-.054.152.152 0 0 0 .036-.101.138.138 0 0 0-.03-.09.194.194 0 0 0-.101-.058v.303z" fill="#424242"/><path class="fil2" d="M3.969 3.657l1.829 1.83-.269.268L3.695 3.92a1.784 1.784 0 0 0 .274-.264z" fill="#64B5F6"/></g><metadata><rdf:RDF xmlns:rdf="http://www.w3.org/1999/02/22-rdf-syntax-ns#" xmlns:rdfs="http://www.w3.org/2000/01/rdf-schema#" xmlns:dc="http://purl.org/dc/elements/1.1/"><rdf:Description about="https://iconscout.com/legal#licenses" dc:title="view,currency" dc:description="view,currency" dc:publisher="Iconscout" dc:date="2018-01-24" dc:format="image/svg+xml" dc:language="en"><dc:creator><rdf:Bag><rdf:li>Icon Bunny</rdf:li></rdf:Bag></dc:creator></rdf:Description></rdf:RDF></metadata></svg>